<?xml version="1.0" encoding="UTF-8"?>
<svg version="1.1" xmlns="http://www.w3.org/2000/svg" width="225" height="225">
<path d="M0 0 C74.25 0 148.5 0 225 0 C225 74.25 225 148.5 225 225 C150.75 225 76.5 225 0 225 C0 150.75 0 76.5 0 0 Z " fill="#EDEEED" transform="translate(0,0)"/>
<path d="M0 0 C0.83789062 0.44085938 1.67578125 0.88171875 2.5390625 1.3359375 C9.16796526 5.0505858 14.53079722 9.76176018 20 15 C20.639375 15.57621094 21.27875 16.15242188 21.9375 16.74609375 C35.41749263 29.29331903 43.61894576 49.41017641 44.46875 67.578125 C44.50278405 69.8018473 44.51272852 72.0260537 44.5 74.25 C44.49427979 75.4258667 44.48855957 76.6017334 44.48266602 77.81323242 C44.28374381 87.57381609 42.81242633 96.02708095 39 105 C38.73767578 105.62680664 38.47535156 106.25361328 38.20507812 106.89941406 C30.91481112 123.81388248 18.08589606 138.03718401 2 147 C1.22398437 147.44859375 0.44796875 147.8971875 -0.3515625 148.359375 C-2.85537171 149.7159539 -5.38438331 150.87378075 -8 152 C-9.54880859 152.70189453 -9.54880859 152.70189453 -11.12890625 153.41796875 C-29.45277882 160.47473521 -52.9878724 159.6854631 -71 152 C-71.928125 151.42894531 -72.85625 150.85789063 -73.8125 150.26953125 C-82.558955 146.78595542 -93.07334298 151.50431234 -101.625 154 C-116.82891368 158.42197793 -116.82891368 158.42197793 -124 159 C-122.48660264 152.02678631 -120.80648906 145.10634831 -119.0625 138.1875 C-118.81048828 137.18396484 -118.55847656 136.18042969 -118.29882812 135.14648438 C-118.04681641 134.14294922 -117.79480469 133.13941406 -117.53515625 132.10546875 C-117.28854248 131.10370605 -117.04192871 130.10194336 -116.7878418 129.06982422 C-116.24820535 126.96713171 -115.66667669 124.87487322 -115.05004883 122.79345703 C-113.23291915 116.68314995 -113.23291915 116.68314995 -113.87890625 110.46875 C-114.43449219 109.4890625 -114.99007812 108.509375 -115.5625 107.5 C-125.35260882 87.56618927 -124.64638753 65.6734099 -117.875 44.9375 C-109.66619896 23.38325296 -93.90159885 6.76910886 -73 -3 C-49.67214674 -12.49428899 -22.36422096 -12.06398039 0 0 Z " fill="#EDEFEE" transform="translate(152,38)"/>
<path d="M0 0 C0.83789062 0.44085938 1.67578125 0.88171875 2.5390625 1.3359375 C9.16796526 5.0505858 14.53079722 9.76176018 20 15 C20.639375 15.57621094 21.27875 16.15242188 21.9375 16.74609375 C35.41749263 29.29331903 43.61894576 49.41017641 44.46875 67.578125 C44.50278405 69.8018473 44.51272852 72.0260537 44.5 74.25 C44.49427979 75.4258667 44.48855957 76.6017334 44.48266602 77.81323242 C44.28374381 87.57381609 42.81242633 96.02708095 39 105 C38.73767578 105.62680664 38.47535156 106.25361328 38.20507812 106.89941406 C30.91481112 123.81388248 18.08589606 138.03718401 2 147 C1.22398437 147.44859375 0.44796875 147.8971875 -0.3515625 148.359375 C-2.85537171 149.7159539 -5.38438331 150.87378075 -8 152 C-9.54880859 152.70189453 -9.54880859 152.70189453 -11.12890625 153.41796875 C-29.45277882 160.47473521 -52.9878724 159.6854631 -71 152 C-71.928125 151.42894531 -72.85625 150.85789063 -73.8125 150.26953125 C-82.558955 146.78595542 -93.07334298 151.50431234 -101.625 154 C-116.82891368 158.42197793 -116.82891368 158.42197793 -124 159 C-122.48660264 152.02678631 -120.80648906 145.10634831 -119.0625 138.1875 C-118.81048828 137.18396484 -118.55847656 136.18042969 -118.29882812 135.14648438 C-118.04681641 134.14294922 -117.79480469 133.13941406 -117.53515625 132.10546875 C-117.28854248 131.10370605 -117.04192871 130.10194336 -116.7878418 129.06982422 C-116.24820535 126.96713171 -115.66667669 124.87487322 -115.05004883 122.79345703 C-113.23291915 116.68314995 -113.23291915 116.68314995 -113.87890625 110.46875 C-114.43449219 109.4890625 -114.99007812 108.509375 -115.5625 107.5 C-125.35260882 87.56618927 -124.64638753 65.6734099 -117.875 44.9375 C-109.66619896 23.38325296 -93.90159885 6.76910886 -73 -3 C-49.67214674 -12.49428899 -22.36422096 -12.06398039 0 0 Z M-89 28 C-89.66644531 28.63421875 -90.33289063 29.2684375 -91.01953125 29.921875 C-103.01596867 42.16203236 -107.52761408 59.73519857 -107.49487305 76.35205078 C-107.18279989 86.87535591 -104.22360425 96.17751782 -99.125 105.375 C-96.37353364 110.62622129 -96.74287572 114.31336137 -98 120 C-98.15243164 120.6923877 -98.30486328 121.38477539 -98.46191406 122.09814453 C-99.57162446 127.08341847 -100.76403243 132.04463233 -102 137 C-95.76489948 135.85036108 -89.71124509 134.42166393 -83.640625 132.5859375 C-77.43911278 131.2098623 -73.943085 132.23115869 -68.4375 135.3125 C-54.25773148 142.79282533 -37.48735266 144.5369392 -22 140 C-20.91203125 139.68160156 -19.8240625 139.36320313 -18.703125 139.03515625 C-1.0635552 133.31577609 12.79200648 121.87304951 21.34765625 105.41796875 C30.03083844 87.45630347 31.4889415 68.90385696 25 50 C21.66632539 41.59677289 16.98383718 34.73475008 11 28 C10.44570312 27.36320312 9.89140625 26.72640625 9.3203125 26.0703125 C-1.91729983 13.97240449 -19.23992206 6.85440698 -35.55859375 5.76171875 C-56.83471924 5.35462269 -74.23589475 12.904861 -89 28 Z " fill="#04BB39" transform="translate(152,38)"/>
<path d="M0 0 C0 0.33 0 0.66 0 1 C-2.64 1 -5.28 1 -8 1 C-8 1.66 -8 2.32 -8 3 C-10.97 3 -13.94 3 -17 3 C-17 5.97 -17 8.94 -17 12 C-19.97 12 -22.94 12 -26 12 C-25.979375 13.464375 -25.95875 14.92875 -25.9375 16.4375 C-25.91607993 17.95832518 -25.92820036 19.48071962 -26 21 C-27 22 -27 22 -28.84765625 22.09765625 C-30.8984375 22.06510417 -32.94921875 22.03255208 -35 22 C-35 24.31 -35 26.62 -35 29 C-34.1646875 29.12375 -34.1646875 29.12375 -33.3125 29.25 C-28.19623677 30.90932861 -25.70335382 34.11063599 -23.1875 38.6875 C-20.96157467 43.49267215 -19.72293177 47.75524652 -21 53 C-22.18432967 55.00425021 -23.43708581 56.67485028 -25.00390625 58.39453125 C-26.20241123 59.96540325 -26.20241123 59.96540325 -25.81640625 61.9609375 C-21.73099081 72.16470238 -11.59502534 80.33640805 -2 85 C1.38965608 85.93534083 1.38965608 85.93534083 4 86 C4.40089844 85.3503125 4.80179687 84.700625 5.21484375 84.03125 C9.64880025 77.51604861 9.64880025 77.51604861 13.1171875 76.19140625 C20.37290225 75.76535894 26.38605105 79.96686427 31.75 84.46875 C33.5903396 86.72316601 33.65146053 88.97041966 33.546875 91.8046875 C32.19867383 97.21675222 27.61786465 100.79600771 23.3125 104 C11.82812145 107.4669822 1.08587082 103.62851356 -9.234375 98.34375 C-12.12135019 96.94103889 -13.84053025 96.72122326 -17 97 C-17 99.97 -17 102.94 -17 106 C-19.97 106 -22.94 106 -26 106 C-26 103.03 -26 100.06 -26 97 C-28.97 96.67 -31.94 96.34 -35 96 C-35.495 91.545 -35.495 91.545 -36 87 C-38.97 87 -41.94 87 -45 87 C-45 90.3 -45 93.6 -45 97 C-42.03 97 -39.06 97 -36 97 C-36 99.97 -36 102.94 -36 106 C-38.97 106 -41.94 106 -45 106 C-45 108.97 -45 111.94 -45 115 C-47.97 115 -50.94 115 -54 115 C-54 112.03 -54 109.06 -54 106 C-56.97 106 -59.94 106 -63 106 C-63.495 106.99 -63.495 106.99 -64 108 C-64.67406648 106.43900395 -65.34612175 104.87712613 -66.01171875 103.3125 C-66.73454296 101.62114848 -67.46778455 99.93423844 -68.20703125 98.25 C-69.52745239 95.18630383 -70.78210401 92.10583186 -72 89 C-72.32613281 88.16984375 -72.65226562 87.3396875 -72.98828125 86.484375 C-78.29093238 70.50102847 -75.48207943 52.70918198 -68.375 37.875 C-64.85902511 30.9335169 -60.63707635 25.40101787 -55 20 C-54.24074219 19.22140625 -53.48148438 18.4428125 -52.69921875 17.640625 C-38.24869053 3.54485606 -19.58031441 -0.9262698 0 0 Z " fill="#EEF2EF" transform="translate(120,44)"/>
<path d="M0 0 C5.48168464 2.94139176 7.96107069 8.34093088 10 14 C10.81901675 18.03611453 10.9695113 21.35928858 8.83203125 24.9765625 C7.4375 26.8125 7.4375 26.8125 5.99609375 28.39453125 C4.79758877 29.96540325 4.79758877 29.96540325 5.18359375 31.9609375 C9.26900919 42.16470238 19.40497466 50.33640805 29 55 C32.38965608 55.93534083 32.38965608 55.93534083 35 56 C35.40089844 55.3503125 35.80179688 54.700625 36.21484375 54.03125 C40.64880025 47.51604861 40.64880025 47.51604861 44.1171875 46.19140625 C51.37290225 45.76535894 57.38605105 49.96686427 62.75 54.46875 C64.5903396 56.72316601 64.65146053 58.97041966 64.546875 61.8046875 C63.19867383 67.21675222 58.61786465 70.79600771 54.3125 74 C42.72146099 77.49918159 32.25897465 73.56752047 21.796875 68.42578125 C5.94170861 59.70543973 -8.47786654 45.0091708 -15.1640625 28.046875 C-16.88481279 21.7749814 -17.49613661 13.91715483 -14.375 8 C-10.4087551 2.99000645 -6.97028438 -1.33473531 0 0 Z " fill="#03BB39" transform="translate(89,74)"/>
<path d="M0 0 C18.315 1.485 18.315 1.485 37 3 C37 5.97 37 8.94 37 12 C34.03 12 31.06 12 28 12 C28 15.3 28 18.6 28 22 C30.97 22 33.94 22 37 22 C37 24.97 37 27.94 37 31 C27.76 31 18.52 31 9 31 C9 28.03 9 25.06 9 22 C6.03 22 3.06 22 0 22 C0 18.7 0 15.4 0 12 C2.97 12 5.94 12 9 12 C9 9.03 9 6.06 9 3 C6.03 3 3.06 3 0 3 C0 2.01 0 1.02 0 0 Z " fill="#ECECEC" transform="translate(94,194)"/>
<path d="M0 0 C0 0.33 0 0.66 0 1 C-2.64 1 -5.28 1 -8 1 C-8 1.66 -8 2.32 -8 3 C-10.97 3 -13.94 3 -17 3 C-17 5.97 -17 8.94 -17 12 C-19.97 12 -22.94 12 -26 12 C-25.979375 13.464375 -25.95875 14.92875 -25.9375 16.4375 C-25.91607993 17.95832518 -25.92820036 19.48071962 -26 21 C-27 22 -27 22 -28.84765625 22.09765625 C-30.8984375 22.06510417 -32.94921875 22.03255208 -35 22 C-35 24.31 -35 26.62 -35 29 C-34.01 29.33 -33.02 29.66 -32 30 C-33.03125 30.185625 -34.0625 30.37125 -35.125 30.5625 C-40.95326045 32.19394004 -43.79733775 37.19600663 -47 42 C-47 41.34 -47 40.68 -47 40 C-49.31 40 -51.62 40 -54 40 C-54 37.03 -54 34.06 -54 31 C-51.03 31 -48.06 31 -45 31 C-45 28.03 -45 25.06 -45 22 C-48.3 22 -51.6 22 -55 22 C-55 24.97 -55 27.94 -55 31 C-57.97 31 -60.94 31 -64 31 C-54.86234061 16.60765889 -41.35873853 6.80395722 -25 2 C-24.30003906 1.77570312 -23.60007813 1.55140625 -22.87890625 1.3203125 C-15.445156 -0.73134636 -7.63978087 -0.16873136 0 0 Z " fill="#E9E9E9" transform="translate(120,44)"/>
<path d="M0 0 C2.97 0 5.94 0 9 0 C9 2.97 9 5.94 9 9 C6.03 9 3.06 9 0 9 C0 6.03 0 3.06 0 0 Z M-37 9 C-37 12.3 -37 15.6 -37 19 C-34.03 19 -31.06 19 -28 19 C-28 21.97 -28 24.94 -28 28 C-25.03 28 -22.06 28 -19 28 C-19 30.97 -19 33.94 -19 37 C-20.65 37.33 -22.3 37.66 -24 38 C-24.58394531 37.19949219 -24.58394531 37.19949219 -25.1796875 36.3828125 C-31.28961525 28.24562762 -38.10077007 20.15218575 -47 15 C-46.67 13.35 -46.34 11.7 -46 10 C-38.125 9 -38.125 9 -37 9 Z M0 9 C0 12.3 0 15.6 0 19 C3.3 19 6.6 19 10 19 C10 21.97 10 24.94 10 28 C6.7 28 3.4 28 0 28 C0 30.97 0 33.94 0 37 C-2.97 37 -5.94 37 -9 37 C-9 34.03 -9 31.06 -9 28 C-12.3 28 -15.6 28 -19 28 C-18.505 23.545 -18.505 23.545 -18 19 C-15.03 19 -12.06 19 -9 19 C-9 16.03 -9 13.06 -9 10 C-1.125 9 -1.125 9 0 9 Z " fill="#E6E6E6" transform="translate(206,28)"/>
<path d="M0 0 C0 2.97 0 5.94 0 9 C2.97 9 5.94 9 9 9 C9 11.97 9 14.94 9 18 C11.97 18 14.94 18 18 18 C18 21.3 18 24.6 18 28 C15.03 28 12.06 28 9 28 C9 30.97 9 33.94 9 37 C5.7 37 2.4 37 -1 37 C-1 34.03 -1 31.06 -1 28 C-2.299375 28.020625 -3.59875 28.04125 -4.9375 28.0625 C-6.29165633 28.08399454 -7.64756083 28.07148199 -9 28 C-10 27 -10 27 -10.09765625 24.93359375 C-10.06510417 22.62239583 -10.03255208 20.31119792 -10 18 C-7.03 18 -4.06 18 -1 18 C-1 15.03 -1 12.06 -1 9 C-3.97 9 -6.94 9 -10 9 C-10 6.69 -10 4.38 -10 2 C-6.49223216 0.39644899 -3.85645121 -0.22036864 0 0 Z " fill="#F5F7F5" transform="translate(66,188)"/>
<path d="M0 0 C2.97 0 5.94 0 9 0 C9 2.97 9 5.94 9 9 C10.98 9 12.96 9 15 9 C17.03435531 12.72965139 18 14.66905042 18 19 C15.03 19 12.06 19 9 19 C9 21.97 9 24.94 9 28 C5.04 28.495 5.04 28.495 1 29 C0.67 31.97 0.34 34.94 0 38 C-2.97 38 -5.94 38 -9 38 C-9 35.03 -9 32.06 -9 29 C-5.04 28.505 -5.04 28.505 -1 28 C-0.505 23.545 -0.505 23.545 0 19 C-2.97 19 -5.94 19 -9 19 C-9 16.03 -9 13.06 -9 10 C-6.36 9.67 -3.72 9.34 -1 9 C-0.67 6.03 -0.34 3.06 0 0 Z " fill="#F8F8F8" transform="translate(19,131)"/>
<path d="M0 0 C2.97 0 5.94 0 9 0 C9 3.3 9 6.6 9 10 C11.97 10 14.94 10 18 10 C18 12.97 18 15.94 18 19 C15.03 19 12.06 19 9 19 C9 21.97 9 24.94 9 28 C7.02 28.33 5.04 28.66 3 29 C2.63648437 28.38511719 2.27296875 27.77023438 1.8984375 27.13671875 C-1.15995941 22.21975756 -3.32547853 19.02661481 -9 17 C-9 14.69 -9 12.38 -9 10 C-6.36 9.67 -3.72 9.34 -1 9 C-0.67 6.03 -0.34 3.06 0 0 Z " fill="#F6F8F6" transform="translate(94,56)"/>
<path d="M0 0 C2.97 0 5.94 0 9 0 C9 2.97 9 5.94 9 9 C11.97 9 14.94 9 18 9 C18 11.97 18 14.94 18 18 C15.03 18 12.06 18 9 18 C9 20.64 9 23.28 9 26 C5.28111761 25.49287967 2.26545761 24.88391785 -1 23 C-1 21.35 -1 19.7 -1 18 C-3.97 18 -6.94 18 -10 18 C-10 15.03 -10 12.06 -10 9 C-5.545 8.505 -5.545 8.505 -1 8 C-0.67 5.36 -0.34 2.72 0 0 Z " fill="#F7F8F7" transform="translate(141,10)"/>
<path d="M0 0 C2.475 0.495 2.475 0.495 5 1 C5 3.97 5 6.94 5 10 C7.97 10 10.94 10 14 10 C14 12.97 14 15.94 14 19 C16.97 19 19.94 19 23 19 C23 21.97 23 24.94 23 28 C20.03 28 17.06 28 14 28 C14 31.3 14 34.6 14 38 C11.03 38 8.06 38 5 38 C3.84969551 35.69939102 3.84717937 34.29888916 3.7890625 31.73828125 C3.76255615 30.87291748 3.7360498 30.00755371 3.70874023 29.1159668 C3.68110596 28.19082275 3.65347168 27.26567871 3.625 26.3125 C3.28989526 17.25378691 2.15060534 8.80530864 0 0 Z " fill="#E6E7E6" transform="translate(192,84)"/>
<path d="M0 0 C2.64 0 5.28 0 8 0 C8.33 2.97 8.66 5.94 9 9 C11.97 9 14.94 9 18 9 C18 11.97 18 14.94 18 18 C15.03 18 12.06 18 9 18 C9 20.97 9 23.94 9 27 C11.31 27 13.62 27 16 27 C15 30 15 30 11.9375 31.6875 C10.968125 32.120625 9.99875 32.55375 9 33 C8.505 30.525 8.505 30.525 8 28 C5.03 28 2.06 28 -1 28 C-1 30.97 -1 33.94 -1 37 C-3.97 37 -6.94 37 -10 37 C-10 34.03 -10 31.06 -10 28 C-6.04 27.505 -6.04 27.505 -2 27 C-1.505 22.545 -1.505 22.545 -1 18 C1.97 18 4.94 18 8 18 C8 15.03 8 12.06 8 9 C5.03 9 2.06 9 -1 9 C-0.67 6.03 -0.34 3.06 0 0 Z " fill="#E6E6E6" transform="translate(57,10)"/>
<path d="M0 0 C3.3 0 6.6 0 10 0 C10 9.24 10 18.48 10 28 C7.03 28 4.06 28 1 28 C1 25.03 1 22.06 1 19 C-2.3 19 -5.6 19 -9 19 C-9 15.7 -9 12.4 -9 9 C-6.03 9 -3.06 9 0 9 C0 6.03 0 3.06 0 0 Z " fill="#E5E5E5" transform="translate(215,0)"/>
<path d="M0 0 C3.3 0 6.6 0 10 0 C10 2.97 10 5.94 10 9 C7.03 9 4.06 9 1 9 C1 11.97 1 14.94 1 18 C3.31 18 5.62 18 8 18 C7.67 21.3 7.34 24.6 7 28 C5.02 28 3.04 28 1 28 C-0.4783226 25.04335481 -0.06032783 22.25770263 0 19 C-2.97 19 -5.94 19 -9 19 C-9 21.97 -9 24.94 -9 28 C-11.64 28 -14.28 28 -17 28 C-16.44208397 23.34837514 -15.15058199 19.8387436 -13 15.6875 C-12.46375 14.63949219 -11.9275 13.59148437 -11.375 12.51171875 C-10 10 -10 10 -9 9 C-5.99668982 8.85806663 -3.00782866 8.95763622 0 9 C0 6.03 0 3.06 0 0 Z " fill="#F0F3F1" transform="translate(65,66)"/>
<path d="M0 0 C2.97 0 5.94 0 9 0 C9 2.97 9 5.94 9 9 C11.97 9 14.94 9 18 9 C18 11.97 18 14.94 18 18 C14.83366255 18.19638543 11.66726852 18.38233936 8.5 18.5625 C7.613125 18.61857422 6.72625 18.67464844 5.8125 18.73242188 C0.37734765 19.03215454 -4.62094863 18.8483317 -10 18 C-10 15.03 -10 12.06 -10 9 C-7.03 9 -4.06 9 -1 9 C-0.67 6.03 -0.34 3.06 0 0 Z " fill="#E5E5E5" transform="translate(141,197)"/>
<path d="M0 0 C0 3.3 0 6.6 0 10 C2.97 10 5.94 10 9 10 C9 12.97 9 15.94 9 19 C11.97 19 14.94 19 18 19 C18 21.97 18 24.94 18 28 C16.35 28.33 14.7 28.66 13 29 C12.41605469 28.19949219 12.41605469 28.19949219 11.8203125 27.3828125 C5.71038475 19.24562762 -1.10077007 11.15218575 -10 6 C-9.67 4.35 -9.34 2.7 -9 1 C-1.125 0 -1.125 0 0 0 Z M19 10 C21.97 10 24.94 10 28 10 C28 12.97 28 15.94 28 19 C24.7 19 21.4 19 18 19 C18.33 16.03 18.66 13.06 19 10 Z " fill="#E2E5E2" transform="translate(169,37)"/>
<path d="M0 0 C2.97 0 5.94 0 9 0 C9 2.97 9 5.94 9 9 C6.03 9 3.06 9 0 9 C0 6.03 0 3.06 0 0 Z M0 9 C0.61714865 13.69228894 0.88554705 17.48413876 -1.55859375 21.66796875 C-3.29612873 23.86698184 -5.07346308 25.96534111 -7 28 C-12.28137429 27.48474397 -15.57221156 25.74522883 -20 23 C-19.34 21.68 -18.68 20.36 -18 19 C-15.03 19 -12.06 19 -9 19 C-9 16.03 -9 13.06 -9 10 C-1.125 9 -1.125 9 0 9 Z " fill="#E4E5E4" transform="translate(131,103)"/>
<path d="M0 0 C0 3.3 0 6.6 0 10 C-2.97 10 -5.94 10 -9 10 C-9 15.61 -9 21.22 -9 27 C-9.33 27 -9.66 27 -10 27 C-10 24.36 -10 21.72 -10 19 C-12.97 19 -15.94 19 -19 19 C-19 16.03 -19 13.06 -19 10 C-27.25 9.67 -35.5 9.34 -44 9 C-44 8.67 -44 8.34 -44 8 C-43.16529175 8.00954712 -43.16529175 8.00954712 -42.3137207 8.01928711 C-27.99306206 8.06760341 -16.03164816 5.83697478 -2.69213867 0.62670898 C-1 0 -1 0 0 0 Z " fill="#E6E9E7" transform="translate(150,187)"/>
<path d="M0 0 C2.97 0 5.94 0 9 0 C9 2.97 9 5.94 9 9 C12.3 9 15.6 9 19 9 C19 6.03 19 3.06 19 0 C21.97 0 24.94 0 28 0 C28 2.97 28 5.94 28 9 C30.97 9 33.94 9 37 9 C37 10.65 37 12.3 37 14 C35.78957031 13.67515625 35.78957031 13.67515625 34.5546875 13.34375 C20.18739695 10.04933943 5.64852341 10.72104863 -9 11 C-9 10.34 -9 9.68 -9 9 C-6.03 9 -3.06 9 0 9 C0 6.03 0 3.06 0 0 Z " fill="#DFE5E0" transform="translate(103,19)"/>
<path d="M0 0 C2.97 0 5.94 0 9 0 C9 2.97 9 5.94 9 9 C11.97 9 14.94 9 18 9 C18 11.97 18 14.94 18 18 C16.35 18 14.7 18 13 18 C13 19.65 13 21.3 13 23 C12.67 23 12.34 23 12 23 C11.855625 21.96875 11.71125 20.9375 11.5625 19.875 C10.2921368 15.23582178 7.05997469 13.61183565 3.09375 11.26171875 C1 10 1 10 -1 8 C-0.96712417 5.27130593 -0.43602229 2.7033382 0 0 Z " fill="#E4E5E4" transform="translate(141,113)"/>
<path d="M0 0 C2.97 0 5.94 0 9 0 C9.36222842 3.00132123 9.61149994 5.09010371 9 8 C7.4059318 9.81689494 5.70094169 11.1150956 3.7578125 12.546875 C1.26400297 14.60842421 0.19719197 17.04223161 -1 20 C-1.33 19.34 -1.66 18.68 -2 18 C-4.31 18 -6.62 18 -9 18 C-9 15.03 -9 12.06 -9 9 C-6.03 9 -3.06 9 0 9 C0 6.03 0 3.06 0 0 Z " fill="#E3E4E3" transform="translate(75,66)"/>
<path d="M0 0 C0.33 0 0.66 0 1 0 C1 3.3 1 6.6 1 10 C5.455 9.505 5.455 9.505 10 9 C10 12.3 10 15.6 10 19 C7.03 19 4.06 19 1 19 C-0.65497356 15.69005287 -0.10084335 12.00877 -0.0625 8.375 C-0.05798828 7.57320313 -0.05347656 6.77140625 -0.04882812 5.9453125 C-0.03703168 3.96350994 -0.01909605 1.98174567 0 0 Z M10 0 C12.97 0 15.94 0 19 0 C19 2.97 19 5.94 19 9 C16.03 9 13.06 9 10 9 C10 6.03 10 3.06 10 0 Z " fill="#DCE4DE" transform="translate(196,103)"/>
<path d="M0 0 C2.97 0 5.94 0 9 0 C9 2.97 9 5.94 9 9 C10.299375 8.979375 11.59875 8.95875 12.9375 8.9375 C14.29165633 8.91600546 15.64756083 8.92851801 17 9 C18 10 18 10 18.09765625 12.06640625 C18.06510417 14.37760417 18.03255208 16.68880208 18 19 C15.03 19 12.06 19 9 19 C9 16.03 9 13.06 9 10 C6.03 10 3.06 10 0 10 C0 6.7 0 3.4 0 0 Z " fill="#E6E6E6" transform="translate(122,206)"/>
<path d="M0 0 C2.64 0 5.28 0 8 0 C7.70302239 6.68199612 4.80528873 14.19471127 0 19 C-3.00331018 19.14193337 -5.99217134 19.04236378 -9 19 C-9 16.03 -9 13.06 -9 10 C-6.36 9.67 -3.72 9.34 -1 9 C-0.67 6.03 -0.34 3.06 0 0 Z " fill="#F6F8F7" transform="translate(169,131)"/>
<path d="M0 0 C2.97 0 5.94 0 9 0 C9.33 2.97 9.66 5.94 10 9 C12.64 9.33 15.28 9.66 18 10 C18 12.97 18 15.94 18 19 C15.03 19 12.06 19 9 19 C9 16.03 9 13.06 9 10 C6.03 10 3.06 10 0 10 C0 6.7 0 3.4 0 0 Z " fill="#E5E5E5" transform="translate(47,206)"/>
<path d="M0 0 C2.97 0 5.94 0 9 0 C9.33 2.64 9.66 5.28 10 8 C12.97 8.33 15.94 8.66 19 9 C19 11.64 19 14.28 19 17 C14.44684052 16.38188466 10.71540233 14.53234107 6.6875 12.4375 C5.71973633 11.9434668 5.71973633 11.9434668 4.73242188 11.43945312 C3.15214772 10.63175745 1.57567895 9.81662387 0 9 C0 6.03 0 3.06 0 0 Z " fill="#E5E8E6" transform="translate(75,160)"/>
<path d="M0 0 C0.33 0 0.66 0 1 0 C2.65 8.91 4.3 17.82 6 27 C3 28 3 28 0 27 C0 24.03 0 21.06 0 18 C-2.97 18 -5.94 18 -9 18 C-9 15.03 -9 12.06 -9 9 C-6.03 9 -3.06 9 0 9 C0 6.03 0 3.06 0 0 Z " fill="#E2E7E3" transform="translate(28,113)"/>
<path d="M0 0 C2.97 0 5.94 0 9 0 C9 2.97 9 5.94 9 9 C6.36 9.33 3.72 9.66 1 10 C0.67 12.97 0.34 15.94 0 19 C-2.97 19 -5.94 19 -9 19 C-9 16.03 -9 13.06 -9 10 C-6.36 9.67 -3.72 9.34 -1 9 C-0.67 6.03 -0.34 3.06 0 0 Z " fill="#F8F8F8" transform="translate(94,150)"/>
<path d="M0 0 C2.97 0 5.94 0 9 0 C9 2.97 9 5.94 9 9 C6.36 9.33 3.72 9.66 1 10 C0.67 12.97 0.34 15.94 0 19 C-2.97 19 -5.94 19 -9 19 C-9 16.03 -9 13.06 -9 10 C-6.36 9.67 -3.72 9.34 -1 9 C-0.67 6.03 -0.34 3.06 0 0 Z " fill="#F8F8F8" transform="translate(19,75)"/>
<path d="M0 0 C2.97 0 5.94 0 9 0 C9 2.97 9 5.94 9 9 C6.36 9.33 3.72 9.66 1 10 C0.67 12.97 0.34 15.94 0 19 C-2.97 19 -5.94 19 -9 19 C-9 16.03 -9 13.06 -9 10 C-6.36 9.67 -3.72 9.34 -1 9 C-0.67 6.03 -0.34 3.06 0 0 Z " fill="#E5E5E5" transform="translate(19,28)"/>
<path d="M0 0 C2.97 0 5.94 0 9 0 C9 2.97 9 5.94 9 9 C6.36 9.33 3.72 9.66 1 10 C0.67 12.97 0.34 15.94 0 19 C-2.97 19 -5.94 19 -9 19 C-9 16.03 -9 13.06 -9 10 C-6.36 9.67 -3.72 9.34 -1 9 C-0.67 6.03 -0.34 3.06 0 0 Z " fill="#F8F8F8" transform="translate(169,0)"/>
<path d="M0 0 C2.97 0 5.94 0 9 0 C9 2.97 9 5.94 9 9 C6.36 9.33 3.72 9.66 1 10 C0.67 12.97 0.34 15.94 0 19 C-2.97 19 -5.94 19 -9 19 C-9 16.03 -9 13.06 -9 10 C-6.36 9.67 -3.72 9.34 -1 9 C-0.67 6.03 -0.34 3.06 0 0 Z " fill="#F8F8F8" transform="translate(94,0)"/>
<path d="M0 0 C2.97 0 5.94 0 9 0 C9 2.97 9 5.94 9 9 C6.36 9.33 3.72 9.66 1 10 C0.67 12.97 0.34 15.94 0 19 C-2.97 19 -5.94 19 -9 19 C-9 16.03 -9 13.06 -9 10 C-6.36 9.67 -3.72 9.34 -1 9 C-0.67 6.03 -0.34 3.06 0 0 Z " fill="#F8F8F8" transform="translate(19,0)"/>
<path d="M0 0 C2.97 0 5.94 0 9 0 C9 2.97 9 5.94 9 9 C6.03 9 3.06 9 0 9 C0 6.03 0 3.06 0 0 Z M0 9 C0 12.3 0 15.6 0 19 C-2.97 19 -5.94 19 -9 19 C-9 16.03 -9 13.06 -9 10 C-1.125 9 -1.125 9 0 9 Z " fill="#E5E5E5" transform="translate(206,28)"/>
<path d="M0 0 C0.33 0 0.66 0 1 0 C1.33 1.65 1.66 3.3 2 5 C4.64 5.33 7.28 5.66 10 6 C10.87890625 12.15234375 10.87890625 12.15234375 11 14 C10 15 10 15 7.93359375 15.09765625 C7.10988281 15.08605469 6.28617188 15.07445312 5.4375 15.0625 C4.61121094 15.05347656 3.78492188 15.04445312 2.93359375 15.03515625 C2.29550781 15.02355469 1.65742187 15.01195312 1 15 C1.33 16.65 1.66 18.3 2 20 C-0.31 20.33 -2.62 20.66 -5 21 C-2.525 10.605 -2.525 10.605 0 0 Z " fill="#E2E5E3" transform="translate(55,154)"/>
<path d="M0 0 C0 0.33 0 0.66 0 1 C-2.64 1 -5.28 1 -8 1 C-8 1.66 -8 2.32 -8 3 C-10.97 3 -13.94 3 -17 3 C-17 5.97 -17 8.94 -17 12 C-19.97 12 -22.94 12 -26 12 C-26 9.36 -26 6.72 -26 4 C-26.66 3.67 -27.32 3.34 -28 3 C-18.50386702 -0.02149686 -9.83743016 -0.33706931 0 0 Z " fill="#E2E6E3" transform="translate(120,44)"/>
<path d="M0 0 C0.33 0 0.66 0 1 0 C1.42511001 10.21838503 0.33378839 19.08139933 -2 29 C-2.33 28.34 -2.66 27.68 -3 27 C-5.64 27 -8.28 27 -11 27 C-11 24.03 -11 21.06 -11 18 C-8.03 18 -5.06 18 -2 18 C-2 15.03 -2 12.06 -2 9 C-1.34 9 -0.68 9 0 9 C0 6.03 0 3.06 0 0 Z " fill="#E2E4E2" transform="translate(180,104)"/>
<path d="M0 0 C2.06242617 -0.02717692 4.12495703 -0.0464758 6.1875 -0.0625 C7.33605469 -0.07410156 8.48460938 -0.08570313 9.66796875 -0.09765625 C12.59300586 -0.01192832 15.16316291 0.32150977 18 1 C18 4.3 18 7.6 18 11 C15.03 11 12.06 11 9 11 C9 8.03 9 5.06 9 2 C6.03 2 3.06 2 0 2 C0 1.34 0 0.68 0 0 Z " fill="#F4F7F4" transform="translate(113,45)"/>
<path d="M0 0 C2.97 0 5.94 0 9 0 C9.09765625 6.93359375 9.09765625 6.93359375 9 9 C8 10 8 10 6.15234375 10.09765625 C4.1015625 10.06510417 2.05078125 10.03255208 0 10 C0 11.65 0 13.3 0 15 C-1.32 14.01 -2.64 13.02 -4 12 C-3.67 11.01 -3.34 10.02 -3 9 C-2.01 9 -1.02 9 0 9 C0 6.03 0 3.06 0 0 Z " fill="#F7F8F7" transform="translate(103,103)"/>
<path d="M0 0 C0.33 0 0.66 0 1 0 C1 3.63 1 7.26 1 11 C4.3 11 7.6 11 11 11 C11 13.97 11 16.94 11 20 C7.37 20 3.74 20 0 20 C0 13.4 0 6.8 0 0 Z " fill="#D9E3DB" transform="translate(45,102)"/>
<path d="M0 0 C2.97 0 5.94 0 9 0 C9 2.97 9 5.94 9 9 C11.97 9 14.94 9 18 9 C18 9.33 18 9.66 18 10 C5.33029613 10.3690205 5.33029613 10.3690205 0 8 C0 5.36 0 2.72 0 0 Z " fill="#F7F9F7" transform="translate(94,169)"/>
<path d="M0 0 C2.97 0 5.94 0 9 0 C9 2.97 9 5.94 9 9 C6.36 9 3.72 9 1 9 C0.67 9.66 0.34 10.32 0 11 C-1.4606285 8.35261084 -2 7.10551666 -2 4 C-1.34 4 -0.68 4 0 4 C0 2.68 0 1.36 0 0 Z " fill="#E3E5E3" transform="translate(188,66)"/>
<path d="M0 0 C2.97 0 5.94 0 9 0 C9 3.3 9 6.6 9 10 C6.03 10 3.06 10 0 10 C0 6.7 0 3.4 0 0 Z " fill="#E5E5E5" transform="translate(197,206)"/>
<path d="M0 0 C2.97 0 5.94 0 9 0 C9 3.3 9 6.6 9 10 C6.03 10 3.06 10 0 10 C0 6.7 0 3.4 0 0 Z " fill="#F8F8F8" transform="translate(169,206)"/>
<path d="M0 0 C2.97 0 5.94 0 9 0 C9 3.3 9 6.6 9 10 C6.03 10 3.06 10 0 10 C0 6.7 0 3.4 0 0 Z " fill="#F8F8F8" transform="translate(113,206)"/>
<path d="M0 0 C0 2.97 0 5.94 0 9 C-2.97 9 -5.94 9 -9 9 C-9.33 5.7 -9.66 2.4 -10 -1 C-5.59232396 -2.10191901 -4.1077065 -1.58706842 0 0 Z " fill="#E3E5E3" transform="translate(75,188)"/>
<path d="M0 0 C3.3 0 6.6 0 10 0 C10 2.97 10 5.94 10 9 C6.7 9 3.4 9 0 9 C0 6.03 0 3.06 0 0 Z " fill="#F8F8F8" transform="translate(206,169)"/>
<path d="M0 0 C3.3 0 6.6 0 10 0 C10 2.97 10 5.94 10 9 C6.7 9 3.4 9 0 9 C0 6.03 0 3.06 0 0 Z " fill="#F8F8F8" transform="translate(206,113)"/>
<path d="M0 0 C0.33 0 0.66 0 1 0 C1 2.31 1 4.62 1 7 C3.97 7 6.94 7 10 7 C10 9.97 10 12.94 10 16 C7.36 16 4.72 16 2 16 C-0.27141454 10.60539047 -0.20413361 5.73842251 0 0 Z " fill="#F7F9F8" transform="translate(46,115)"/>
<path d="M0 0 C2.97 0 5.94 0 9 0 C9.09765625 6.93359375 9.09765625 6.93359375 9 9 C8 10 8 10 6.15234375 10.09765625 C4.1015625 10.06510417 2.05078125 10.03255208 0 10 C0 6.7 0 3.4 0 0 Z " fill="#F8F8F8" transform="translate(197,103)"/>
<path d="M0 0 C0.66 0.33 1.32 0.66 2 1 C1.34 4.63 0.68 8.26 0 12 C-2.97 12 -5.94 12 -9 12 C-9 9.03 -9 6.06 -9 3 C-6.03 3 -3.06 3 0 3 C0 2.01 0 1.02 0 0 Z " fill="#E2E4E2" transform="translate(84,119)"/>
<path d="M0 0 C0.66 0.33 1.32 0.66 2 1 C1.67 1.33 1.34 1.66 1 2 C3.97 2.495 3.97 2.495 7 3 C7 5.97 7 8.94 7 12 C5.35 12.66 3.7 13.32 2 14 C-3.0215698 7.9706411 -3.0215698 7.9706411 -2.9375 4.1875 C-2 2 -2 2 0 0 Z " fill="#DEE5DF" transform="translate(96,100)"/>
<path d="M0 0 C2.97 0.33 5.94 0.66 9 1 C9 3.97 9 6.94 9 10 C6.03 10 3.06 10 0 10 C-0.80688405 6.05523353 -1.00000429 4.00001715 0 0 Z " fill="#DFE4E0" transform="translate(47,93)"/>
<path d="M0 0 C0.33 0.66 0.66 1.32 1 2 C3.97 2 6.94 2 10 2 C10 4.97 10 7.94 10 11 C7.03 11 4.06 11 1 11 C0.67 7.37 0.34 3.74 0 0 Z " fill="#F9F9F9" transform="translate(196,120)"/>
<path d="M0 0 C1.423125 0.061875 2.84625 0.12375 4.3125 0.1875 C4.3125 3.1575 4.3125 6.1275 4.3125 9.1875 C2.6625 9.1875 1.0125 9.1875 -0.6875 9.1875 C-0.6875 10.8375 -0.6875 12.4875 -0.6875 14.1875 C-1.0175 14.1875 -1.3475 14.1875 -1.6875 14.1875 C-1.935 13.115 -2.1825 12.0425 -2.4375 10.9375 C-3.68633146 7.19100563 -4.71238658 5.66676118 -7.6875 3.1875 C-5.26849268 0.20484049 -3.789448 -0.16475861 0 0 Z " fill="#DEE5DF" transform="translate(154.6875,121.8125)"/>
<path d="M0 0 C0.33 0.66 0.66 1.32 1 2 C3.97 2 6.94 2 10 2 C10 4.97 10 7.94 10 11 C7.03 11 4.06 11 1 11 C0.67 7.37 0.34 3.74 0 0 Z " fill="#F8F8F8" transform="translate(46,101)"/>
<path d="M0 0 C3.63 0 7.26 0 11 0 C10.34 2.97 9.68 5.94 9 9 C6.03 9 3.06 9 0 9 C0 6.03 0 3.06 0 0 Z " fill="#E4E5E4" transform="translate(141,56)"/>
<path d="M0 0 C2.97 0 5.94 0 9 0 C9 2.97 9 5.94 9 9 C1.375 10.25 1.375 10.25 -2 8 C-1.34 8 -0.68 8 0 8 C0 5.36 0 2.72 0 0 Z " fill="#E3E5E4" transform="translate(150,28)"/>
<path d="M0 0 C2.97 0 5.94 0 9 0 C9 3.3 9 6.6 9 10 C6.03 9.67 3.06 9.34 0 9 C0 6.03 0 3.06 0 0 Z " fill="#F8F8F8" transform="translate(188,206)"/>
<path d="M0 0 C2.97 0 5.94 0 9 0 C9.33 2.97 9.66 5.94 10 9 C6.7169902 10.6415049 3.57454967 9.51888624 0 9 C0 6.03 0 3.06 0 0 Z " fill="#F8F8F8" transform="translate(131,206)"/>
<path d="M0 0 C2.97 0 5.94 0 9 0 C9 3.3 9 6.6 9 10 C6.03 9.67 3.06 9.34 0 9 C0 6.03 0 3.06 0 0 Z " fill="#F8F8F8" transform="translate(38,206)"/>
<path d="M0 0 C3.63 0 7.26 0 11 0 C10.01 0.495 10.01 0.495 9 1 C9 3.64 9 6.28 9 9 C6.03 9 3.06 9 0 9 C0 6.03 0 3.06 0 0 Z " fill="#E3E4E3" transform="translate(19,197)"/>
<path d="M0 0 C2.72869407 0.03287583 5.2966618 0.56397771 8 1 C8 3.97 8 6.94 8 10 C5.03 10 2.06 10 -1 10 C-1.9765625 3.9453125 -1.9765625 3.9453125 -2 2 C-1.34 1.34 -0.68 0.68 0 0 Z " fill="#E2E4E2" transform="translate(151,140)"/>
<path d="M0 0 C2.97 0 5.94 0 9 0 C9 3.3 9 6.6 9 10 C6.03 9.67 3.06 9.34 0 9 C0 6.03 0 3.06 0 0 Z " fill="#F8F9F8" transform="translate(66,28)"/>
<path d="M0 0 C2.05078125 0.03255208 4.1015625 0.06510417 6.15234375 0.09765625 C6.15234375 3.39765625 6.15234375 6.69765625 6.15234375 10.09765625 C3.18234375 9.76765625 0.21234375 9.43765625 -2.84765625 9.09765625 C-2.9453125 2.9453125 -2.9453125 2.9453125 -2.84765625 1.09765625 C-1.84765625 0.09765625 -1.84765625 0.09765625 0 0 Z " fill="#E5E5E5" transform="translate(162.84765625,205.90234375)"/>
<path d="M0 0 C2.97 0 5.94 0 9 0 C9 2.97 9 5.94 9 9 C4.545 9.495 4.545 9.495 0 10 C0 6.7 0 3.4 0 0 Z " fill="#F9F9F9" transform="translate(94,206)"/>
<path d="M0 0 C2.97 0 5.94 0 9 0 C9 2.97 9 5.94 9 9 C2.84765625 9.87890625 2.84765625 9.87890625 1 10 C0 9 0 9 -0.09765625 6.93359375 C-0.06510417 4.62239583 -0.03255208 2.31119792 0 0 Z " fill="#F8F8F8" transform="translate(56,206)"/>
<path d="M0 0 C2.97 0 5.94 0 9 0 C9 2.97 9 5.94 9 9 C6.03 9 3.06 9 0 9 C0 6.03 0 3.06 0 0 Z " fill="#E5E5E5" transform="translate(28,206)"/>
<path d="M0 0 C0 3.3 0 6.6 0 10 C-2.97 10 -5.94 10 -9 10 C-9 7.03 -9 4.06 -9 1 C-1.125 0 -1.125 0 0 0 Z " fill="#E5E5E5" transform="translate(169,187)"/>
<path d="M0 0 C2.97 0.33 5.94 0.66 9 1 C9 3.97 9 6.94 9 10 C6.03 10 3.06 10 0 10 C0 6.7 0 3.4 0 0 Z " fill="#F9F9F9" transform="translate(150,187)"/>
<path d="M0 0 C4.84659077 0.59104765 8.60748167 1.97944157 13 4 C13 6.31 13 8.62 13 11 C10.03 11 7.06 11 4 11 C4 8.03 4 5.06 4 2 C2.68 1.67 1.36 1.34 0 1 C0 0.67 0 0.34 0 0 Z " fill="#F6F9F7" transform="translate(71,186)"/>
<path d="M0 0 C0 3.3 0 6.6 0 10 C-2.97 10 -5.94 10 -9 10 C-9 7.03 -9 4.06 -9 1 C-1.125 0 -1.125 0 0 0 Z " fill="#E5E5E5" transform="translate(19,187)"/>
<path d="M0 0 C2.97 0 5.94 0 9 0 C9 2.97 9 5.94 9 9 C5.93109813 10.53445094 3.29905734 9.54984289 0 9 C0 6.03 0 3.06 0 0 Z " fill="#E5E5E5" transform="translate(85,131)"/>
<path d="M0 0 C2.97 0 5.94 0 9 0 C9 2.97 9 5.94 9 9 C6.03 9 3.06 9 0 9 C0 6.03 0 3.06 0 0 Z " fill="#E5E5E5" transform="translate(206,103)"/>
<path d="M0 0 C2.97 0 5.94 0 9 0 C9.87890625 6.15234375 9.87890625 6.15234375 10 8 C9 9 9 9 6.93359375 9.09765625 C3.46679688 9.04882812 3.46679688 9.04882812 0 9 C0 6.03 0 3.06 0 0 Z " fill="#E5E5E5" transform="translate(131,85)"/>
<path d="M0 0 C2.97 0 5.94 0 9 0 C9.87890625 6.15234375 9.87890625 6.15234375 10 8 C9 9 9 9 6.93359375 9.09765625 C3.46679688 9.04882812 3.46679688 9.04882812 0 9 C0 6.03 0 3.06 0 0 Z " fill="#E5E5E5" transform="translate(56,85)"/>
<path d="M0 0 C3.3 0 6.6 0 10 0 C9.67 2.97 9.34 5.94 9 9 C6.03 9 3.06 9 0 9 C0 6.03 0 3.06 0 0 Z " fill="#E5E5E5" transform="translate(160,75)"/>
<path d="M0 0 C2.97 0 5.94 0 9 0 C9.33 2.97 9.66 5.94 10 9 C6.7 9 3.4 9 0 9 C0 6.03 0 3.06 0 0 Z " fill="#F9F9F9" transform="translate(28,66)"/>
<path d="M0 0 C2.97 0 5.94 0 9 0 C9 2.97 9 5.94 9 9 C5.93109813 10.53445094 3.29905734 9.54984289 0 9 C0 6.03 0 3.06 0 0 Z " fill="#E5E5E5" transform="translate(10,56)"/>
<path d="M0 0 C0 3.3 0 6.6 0 10 C-2.97 10 -5.94 10 -9 10 C-9 7.03 -9 4.06 -9 1 C-1.125 0 -1.125 0 0 0 Z " fill="#F9F9F9" transform="translate(206,9)"/>
<path d="M0 0 C2.97 0 5.94 0 9 0 C9 2.97 9 5.94 9 9 C6.03 9 3.06 9 0 9 C0 6.03 0 3.06 0 0 Z " fill="#F9F9F9" transform="translate(216,216)"/>
<path d="M0 0 C2.97 0 5.94 0 9 0 C9 2.97 9 5.94 9 9 C6.03 9 3.06 9 0 9 C0 6.03 0 3.06 0 0 Z " fill="#E5E5E5" transform="translate(206,216)"/>
<path d="M0 0 C2.97 0 5.94 0 9 0 C9 2.97 9 5.94 9 9 C6.03 9 3.06 9 0 9 C0 6.03 0 3.06 0 0 Z " fill="#F9F9F9" transform="translate(197,216)"/>
<path d="M0 0 C2.97 0 5.94 0 9 0 C9 2.97 9 5.94 9 9 C6.03 9 3.06 9 0 9 C0 6.03 0 3.06 0 0 Z " fill="#E4E4E4" transform="translate(188,216)"/>
<path d="M0 0 C2.97 0 5.94 0 9 0 C9 2.97 9 5.94 9 9 C6.03 9 3.06 9 0 9 C0 6.03 0 3.06 0 0 Z " fill="#F9F9F9" transform="translate(178,216)"/>
<path d="M0 0 C2.97 0 5.94 0 9 0 C9 2.97 9 5.94 9 9 C6.03 9 3.06 9 0 9 C0 6.03 0 3.06 0 0 Z " fill="#E4E4E4" transform="translate(169,216)"/>
<path d="M0 0 C2.97 0 5.94 0 9 0 C9 2.97 9 5.94 9 9 C6.03 9 3.06 9 0 9 C0 6.03 0 3.06 0 0 Z " fill="#F8F8F8" transform="translate(160,216)"/>
<path d="M0 0 C2.97 0 5.94 0 9 0 C9 2.97 9 5.94 9 9 C6.03 9 3.06 9 0 9 C0 6.03 0 3.06 0 0 Z " fill="#E4E4E4" transform="translate(150,216)"/>
<path d="M0 0 C2.97 0 5.94 0 9 0 C9 2.97 9 5.94 9 9 C6.03 9 3.06 9 0 9 C0 6.03 0 3.06 0 0 Z " fill="#F9F9F9" transform="translate(141,216)"/>
<path d="M0 0 C2.97 0 5.94 0 9 0 C9 2.97 9 5.94 9 9 C6.03 9 3.06 9 0 9 C0 6.03 0 3.06 0 0 Z " fill="#F9F9F9" transform="translate(122,216)"/>
<path d="M0 0 C2.97 0 5.94 0 9 0 C9 2.97 9 5.94 9 9 C6.03 9 3.06 9 0 9 C0 6.03 0 3.06 0 0 Z " fill="#E4E4E4" transform="translate(113,216)"/>
<path d="M0 0 C2.97 0 5.94 0 9 0 C9 2.97 9 5.94 9 9 C6.03 9 3.06 9 0 9 C0 6.03 0 3.06 0 0 Z " fill="#F9F9F9" transform="translate(103,216)"/>
<path d="M0 0 C2.97 0 5.94 0 9 0 C9 2.97 9 5.94 9 9 C6.03 9 3.06 9 0 9 C0 6.03 0 3.06 0 0 Z " fill="#E4E4E4" transform="translate(94,216)"/>
<path d="M0 0 C2.97 0 5.94 0 9 0 C9 2.97 9 5.94 9 9 C6.03 9 3.06 9 0 9 C0 6.03 0 3.06 0 0 Z " fill="#F8F8F8" transform="translate(85,216)"/>
<path d="M0 0 C2.97 0 5.94 0 9 0 C9 2.97 9 5.94 9 9 C6.03 9 3.06 9 0 9 C0 6.03 0 3.06 0 0 Z " fill="#F9F9F9" transform="translate(66,216)"/>
<path d="M0 0 C2.97 0 5.94 0 9 0 C9 2.97 9 5.94 9 9 C6.03 9 3.06 9 0 9 C0 6.03 0 3.06 0 0 Z " fill="#F9F9F9" transform="translate(47,216)"/>
<path d="M0 0 C2.97 0 5.94 0 9 0 C9 2.97 9 5.94 9 9 C6.03 9 3.06 9 0 9 C0 6.03 0 3.06 0 0 Z " fill="#E5E5E5" transform="translate(38,216)"/>
<path d="M0 0 C2.97 0 5.94 0 9 0 C9 2.97 9 5.94 9 9 C6.03 9 3.06 9 0 9 C0 6.03 0 3.06 0 0 Z " fill="#F9F9F9" transform="translate(28,216)"/>
<path d="M0 0 C2.97 0 5.94 0 9 0 C9 2.97 9 5.94 9 9 C6.03 9 3.06 9 0 9 C0 6.03 0 3.06 0 0 Z " fill="#E4E4E4" transform="translate(19,216)"/>
<path d="M0 0 C2.97 0 5.94 0 9 0 C9 2.97 9 5.94 9 9 C6.03 9 3.06 9 0 9 C0 6.03 0 3.06 0 0 Z " fill="#E4E4E4" transform="translate(0,216)"/>
<path d="M0 0 C2.97 0 5.94 0 9 0 C9 2.97 9 5.94 9 9 C6.03 9 3.06 9 0 9 C0 6.03 0 3.06 0 0 Z " fill="#E5E5E5" transform="translate(216,206)"/>
<path d="M0 0 C2.97 0 5.94 0 9 0 C9 2.97 9 5.94 9 9 C6.03 9 3.06 9 0 9 C0 6.03 0 3.06 0 0 Z " fill="#F8F8F8" transform="translate(206,206)"/>
<path d="M0 0 C2.97 0 5.94 0 9 0 C9 2.97 9 5.94 9 9 C6.03 9 3.06 9 0 9 C0 6.03 0 3.06 0 0 Z " fill="#E5E5E5" transform="translate(178,206)"/>
<path d="M0 0 C2.97 0 5.94 0 9 0 C9 2.97 9 5.94 9 9 C6.03 9 3.06 9 0 9 C0 6.03 0 3.06 0 0 Z " fill="#F8F8F8" transform="translate(150,206)"/>
<path d="M0 0 C2.97 0 5.94 0 9 0 C9 2.97 9 5.94 9 9 C6.03 9 3.06 9 0 9 C0 6.03 0 3.06 0 0 Z " fill="#E5E5E5" transform="translate(66,206)"/>
<path d="M0 0 C2.05078125 0.03255208 4.1015625 0.06510417 6.15234375 0.09765625 C6.15234375 3.06765625 6.15234375 6.03765625 6.15234375 9.09765625 C3.08344188 10.63210719 0.45140109 9.64749914 -2.84765625 9.09765625 C-2.9453125 2.9453125 -2.9453125 2.9453125 -2.84765625 1.09765625 C-1.84765625 0.09765625 -1.84765625 0.09765625 0 0 Z " fill="#E5E5E5" transform="translate(12.84765625,205.90234375)"/>
<path d="M0 0 C2.97 0 5.94 0 9 0 C9 2.97 9 5.94 9 9 C6.03 9 3.06 9 0 9 C0 6.03 0 3.06 0 0 Z " fill="#F8F8F8" transform="translate(0,206)"/>
<path d="M0 0 C2.97 0 5.94 0 9 0 C9 2.97 9 5.94 9 9 C6.03 9 3.06 9 0 9 C0 6.03 0 3.06 0 0 Z " fill="#F9F9F9" transform="translate(216,197)"/>
<path d="M0 0 C2.97 0 5.94 0 9 0 C9 2.97 9 5.94 9 9 C6.03 9 3.06 9 0 9 C0 6.03 0 3.06 0 0 Z " fill="#E5E5E5" transform="translate(206,197)"/>
<path d="M0 0 C2.97 0 5.94 0 9 0 C9 2.97 9 5.94 9 9 C6.03 9 3.06 9 0 9 C0 6.03 0 3.06 0 0 Z " fill="#FAFAFA" transform="translate(197,197)"/>
<path d="M0 0 C2.97 0 5.94 0 9 0 C9 2.97 9 5.94 9 9 C6.03 9 3.06 9 0 9 C0 6.03 0 3.06 0 0 Z " fill="#E4E4E4" transform="translate(188,197)"/>
<path d="M0 0 C2.97 0 5.94 0 9 0 C9 2.97 9 5.94 9 9 C6.03 9 3.06 9 0 9 C0 6.03 0 3.06 0 0 Z " fill="#F9F9F9" transform="translate(178,197)"/>
<path d="M0 0 C2.97 0 5.94 0 9 0 C9 2.97 9 5.94 9 9 C6.03 9 3.06 9 0 9 C0 6.03 0 3.06 0 0 Z " fill="#E4E4E4" transform="translate(169,197)"/>
<path d="M0 0 C2.97 0 5.94 0 9 0 C9 2.97 9 5.94 9 9 C6.03 9 3.06 9 0 9 C0 6.03 0 3.06 0 0 Z " fill="#F9F9F9" transform="translate(160,197)"/>
<path d="M0 0 C2.97 0 5.94 0 9 0 C9 2.97 9 5.94 9 9 C6.03 9 3.06 9 0 9 C0 6.03 0 3.06 0 0 Z " fill="#E4E4E4" transform="translate(150,197)"/>
<path d="M0 0 C2.97 0 5.94 0 9 0 C9 2.97 9 5.94 9 9 C6.03 9 3.06 9 0 9 C0 6.03 0 3.06 0 0 Z " fill="#F9F9F9" transform="translate(141,197)"/>
<path d="M0 0 C2.97 0 5.94 0 9 0 C9 2.97 9 5.94 9 9 C6.03 9 3.06 9 0 9 C0 6.03 0 3.06 0 0 Z " fill="#F9F9F9" transform="translate(122,197)"/>
<path d="M0 0 C2.97 0 5.94 0 9 0 C9 2.97 9 5.94 9 9 C6.03 9 3.06 9 0 9 C0 6.03 0 3.06 0 0 Z " fill="#E4E4E4" transform="translate(94,197)"/>
<path d="M0 0 C2.97 0 5.94 0 9 0 C9 2.97 9 5.94 9 9 C6.03 9 3.06 9 0 9 C0 6.03 0 3.06 0 0 Z " fill="#F9F9F9" transform="translate(85,197)"/>
<path d="M0 0 C2.97 0 5.94 0 9 0 C9 2.97 9 5.94 9 9 C6.03 9 3.06 9 0 9 C0 6.03 0 3.06 0 0 Z " fill="#F9F9F9" transform="translate(66,197)"/>
<path d="M0 0 C2.97 0 5.94 0 9 0 C9 2.97 9 5.94 9 9 C6.03 9 3.06 9 0 9 C0 6.03 0 3.06 0 0 Z " fill="#E5E5E5" transform="translate(56,197)"/>
<path d="M0 0 C2.97 0 5.94 0 9 0 C9 2.97 9 5.94 9 9 C6.03 9 3.06 9 0 9 C0 6.03 0 3.06 0 0 Z " fill="#F9F9F9" transform="translate(47,197)"/>
<path d="M0 0 C2.97 0 5.94 0 9 0 C9 2.97 9 5.94 9 9 C6.03 9 3.06 9 0 9 C0 6.03 0 3.06 0 0 Z " fill="#F9F9F9" transform="translate(10,197)"/>
<path d="M0 0 C2.97 0 5.94 0 9 0 C9 2.97 9 5.94 9 9 C6.03 9 3.06 9 0 9 C0 6.03 0 3.06 0 0 Z " fill="#E4E4E4" transform="translate(0,197)"/>
<path d="M0 0 C2.97 0 5.94 0 9 0 C9 2.97 9 5.94 9 9 C6.03 9 3.06 9 0 9 C0 6.03 0 3.06 0 0 Z " fill="#E4E4E4" transform="translate(216,188)"/>
<path d="M0 0 C2.97 0 5.94 0 9 0 C9 2.97 9 5.94 9 9 C6.03 9 3.06 9 0 9 C0 6.03 0 3.06 0 0 Z " fill="#E4E4E4" transform="translate(197,188)"/>
<path d="M0 0 C2.97 0 5.94 0 9 0 C9 2.97 9 5.94 9 9 C6.03 9 3.06 9 0 9 C0 6.03 0 3.06 0 0 Z " fill="#F9F9F9" transform="translate(188,188)"/>
<path d="M0 0 C2.97 0 5.94 0 9 0 C9 2.97 9 5.94 9 9 C6.03 9 3.06 9 0 9 C0 6.03 0 3.06 0 0 Z " fill="#F9F9F9" transform="translate(169,188)"/>
<path d="M0 0 C2.97 0 5.94 0 9 0 C9 2.97 9 5.94 9 9 C6.03 9 3.06 9 0 9 C0 6.03 0 3.06 0 0 Z " fill="#F9F9F9" transform="translate(19,188)"/>
<path d="M0 0 C2.97 0 5.94 0 9 0 C9 2.97 9 5.94 9 9 C6.03 9 3.06 9 0 9 C0 6.03 0 3.06 0 0 Z " fill="#F9F9F9" transform="translate(0,188)"/>
<path d="M0 0 C2.97 0 5.94 0 9 0 C9 2.97 9 5.94 9 9 C6.03 9 3.06 9 0 9 C0 6.03 0 3.06 0 0 Z " fill="#F9F9F9" transform="translate(216,178)"/>
<path d="M0 0 C2.97 0 5.94 0 9 0 C9 2.97 9 5.94 9 9 C6.03 9 3.06 9 0 9 C0 6.03 0 3.06 0 0 Z " fill="#E5E5E5" transform="translate(206,178)"/>
<path d="M0 0 C2.97 0 5.94 0 9 0 C9 2.97 9 5.94 9 9 C6.03 9 3.06 9 0 9 C0 6.03 0 3.06 0 0 Z " fill="#F9F9F9" transform="translate(197,178)"/>
<path d="M0 0 C2.97 0 5.94 0 9 0 C9 2.97 9 5.94 9 9 C6.03 9 3.06 9 0 9 C0 6.03 0 3.06 0 0 Z " fill="#F8F8F8" transform="translate(178,178)"/>
<path d="M0 0 C2.97 0 5.94 0 9 0 C9 2.97 9 5.94 9 9 C6.03 9 3.06 9 0 9 C0 6.03 0 3.06 0 0 Z " fill="#E4E4E4" transform="translate(169,178)"/>
<path d="M0 0 C2.97 0 5.94 0 9 0 C9 2.97 9 5.94 9 9 C6.03 9 3.06 9 0 9 C0 6.03 0 3.06 0 0 Z " fill="#F8F8F8" transform="translate(10,178)"/>
<path d="M0 0 C2.97 0 5.94 0 9 0 C9 2.97 9 5.94 9 9 C6.03 9 3.06 9 0 9 C0 6.03 0 3.06 0 0 Z " fill="#E5E5E5" transform="translate(0,178)"/>
<path d="M0 0 C2.97 0 5.94 0 9 0 C9 2.97 9 5.94 9 9 C6.03 9 3.06 9 0 9 C0 6.03 0 3.06 0 0 Z " fill="#E4E4E4" transform="translate(216,169)"/>
<path d="M0 0 C2.97 0 5.94 0 9 0 C9 2.97 9 5.94 9 9 C6.03 9 3.06 9 0 9 C0 6.03 0 3.06 0 0 Z " fill="#E4E4E4" transform="translate(197,169)"/>
<path d="M0 0 C2.97 0 5.94 0 9 0 C9 2.97 9 5.94 9 9 C6.03 9 3.06 9 0 9 C0 6.03 0 3.06 0 0 Z " fill="#F9F9F9" transform="translate(188,169)"/>
<path d="M0 0 C2.97 0 5.94 0 9 0 C9 2.97 9 5.94 9 9 C6.03 9 3.06 9 0 9 C0 6.03 0 3.06 0 0 Z " fill="#F9F9F9" transform="translate(113,169)"/>
<path d="M0 0 C2.97 0 5.94 0 9 0 C9 2.97 9 5.94 9 9 C6.03 9 3.06 9 0 9 C0 6.03 0 3.06 0 0 Z " fill="#F9F9F9" transform="translate(19,169)"/>
<path d="M0 0 C2.97 0 5.94 0 9 0 C9 2.97 9 5.94 9 9 C6.03 9 3.06 9 0 9 C0 6.03 0 3.06 0 0 Z " fill="#E5E5E5" transform="translate(10,169)"/>
<path d="M0 0 C2.97 0 5.94 0 9 0 C9 2.97 9 5.94 9 9 C6.03 9 3.06 9 0 9 C0 6.03 0 3.06 0 0 Z " fill="#F9F9F9" transform="translate(0,169)"/>
<path d="M0 0 C2.97 0 5.94 0 9 0 C9 2.97 9 5.94 9 9 C6.03 9 3.06 9 0 9 C0 6.03 0 3.06 0 0 Z " fill="#F8F8F8" transform="translate(216,160)"/>
<path d="M0 0 C2.97 0 5.94 0 9 0 C9 2.97 9 5.94 9 9 C6.03 9 3.06 9 0 9 C0 6.03 0 3.06 0 0 Z " fill="#F9F9F9" transform="translate(197,160)"/>
<path d="M0 0 C2.97 0 5.94 0 9 0 C9 2.97 9 5.94 9 9 C6.03 9 3.06 9 0 9 C0 6.03 0 3.06 0 0 Z " fill="#F8F9F8" transform="translate(141,160)"/>
<path d="M0 0 C2.97 0 5.94 0 9 0 C9 2.97 9 5.94 9 9 C6.03 9 3.06 9 0 9 C0 6.03 0 3.06 0 0 Z " fill="#F8F8F8" transform="translate(122,160)"/>
<path d="M0 0 C2.97 0 5.94 0 9 0 C9 2.97 9 5.94 9 9 C6.03 9 3.06 9 0 9 C0 6.03 0 3.06 0 0 Z " fill="#F8F8F8" transform="translate(103,160)"/>
<path d="M0 0 C2.97 0 5.94 0 9 0 C9 2.97 9 5.94 9 9 C6.03 9 3.06 9 0 9 C0 6.03 0 3.06 0 0 Z " fill="#E5E5E5" transform="translate(94,160)"/>
<path d="M0 0 C2.97 0 5.94 0 9 0 C9 2.97 9 5.94 9 9 C6.03 9 3.06 9 0 9 C0 6.03 0 3.06 0 0 Z " fill="#E5E5E5" transform="translate(19,160)"/>
<path d="M0 0 C2.97 0 5.94 0 9 0 C9 2.97 9 5.94 9 9 C6.03 9 3.06 9 0 9 C0 6.03 0 3.06 0 0 Z " fill="#E5E5E5" transform="translate(0,160)"/>
<path d="M0 0 C2.97 0 5.94 0 9 0 C9 2.97 9 5.94 9 9 C6.03 9 3.06 9 0 9 C0 6.03 0 3.06 0 0 Z " fill="#E4E4E4" transform="translate(216,150)"/>
<path d="M0 0 C2.97 0 5.94 0 9 0 C9 2.97 9 5.94 9 9 C6.03 9 3.06 9 0 9 C0 6.03 0 3.06 0 0 Z " fill="#F8F8F8" transform="translate(206,150)"/>
<path d="M0 0 C2.97 0 5.94 0 9 0 C9 2.97 9 5.94 9 9 C6.03 9 3.06 9 0 9 C0 6.03 0 3.06 0 0 Z " fill="#E4E4E4" transform="translate(197,150)"/>
<path d="M0 0 C2.97 0 5.94 0 9 0 C9 2.97 9 5.94 9 9 C6.03 9 3.06 9 0 9 C0 6.03 0 3.06 0 0 Z " fill="#F9F9F9" transform="translate(188,150)"/>
<path d="M0 0 C2.97 0 5.94 0 9 0 C9 2.97 9 5.94 9 9 C6.03 9 3.06 9 0 9 C0 6.03 0 3.06 0 0 Z " fill="#F9F9F9" transform="translate(150,150)"/>
<path d="M0 0 C2.97 0 5.94 0 9 0 C9 2.97 9 5.94 9 9 C6.03 9 3.06 9 0 9 C0 6.03 0 3.06 0 0 Z " fill="#E4E4E4" transform="translate(141,150)"/>
<path d="M0 0 C2.97 0 5.94 0 9 0 C9 2.97 9 5.94 9 9 C6.03 9 3.06 9 0 9 C0 6.03 0 3.06 0 0 Z " fill="#F9F9F9" transform="translate(131,150)"/>
<path d="M0 0 C2.97 0 5.94 0 9 0 C9 2.97 9 5.94 9 9 C6.03 9 3.06 9 0 9 C0 6.03 0 3.06 0 0 Z " fill="#F9F9F9" transform="translate(113,150)"/>
<path d="M0 0 C2.97 0 5.94 0 9 0 C9 2.97 9 5.94 9 9 C6.03 9 3.06 9 0 9 C0 6.03 0 3.06 0 0 Z " fill="#E5E5E5" transform="translate(103,150)"/>
<path d="M0 0 C2.97 0 5.94 0 9 0 C9 2.97 9 5.94 9 9 C6.03 9 3.06 9 0 9 C0 6.03 0 3.06 0 0 Z " fill="#E5E5E5" transform="translate(85,150)"/>
<path d="M0 0 C2.97 0 5.94 0 9 0 C9 2.97 9 5.94 9 9 C6.03 9 3.06 9 0 9 C0 6.03 0 3.06 0 0 Z " fill="#E4E4E4" transform="translate(66,150)"/>
<path d="M0 0 C2.97 0 5.94 0 9 0 C9 2.97 9 5.94 9 9 C6.03 9 3.06 9 0 9 C0 6.03 0 3.06 0 0 Z " fill="#E5E5E5" transform="translate(10,150)"/>
<path d="M0 0 C2.97 0 5.94 0 9 0 C9 2.97 9 5.94 9 9 C6.03 9 3.06 9 0 9 C0 6.03 0 3.06 0 0 Z " fill="#F9F9F9" transform="translate(0,150)"/>
<path d="M0 0 C2.97 0 5.94 0 9 0 C9 2.97 9 5.94 9 9 C6.03 9 3.06 9 0 9 C0 6.03 0 3.06 0 0 Z " fill="#F9F9F9" transform="translate(216,141)"/>
<path d="M0 0 C2.97 0 5.94 0 9 0 C9 2.97 9 5.94 9 9 C6.03 9 3.06 9 0 9 C0 6.03 0 3.06 0 0 Z " fill="#E5E5E5" transform="translate(206,141)"/>
<path d="M0 0 C2.97 0 5.94 0 9 0 C9 2.97 9 5.94 9 9 C6.03 9 3.06 9 0 9 C0 6.03 0 3.06 0 0 Z " fill="#F9F9F9" transform="translate(197,141)"/>
<path d="M0 0 C2.97 0 5.94 0 9 0 C9 2.97 9 5.94 9 9 C6.03 9 3.06 9 0 9 C0 6.03 0 3.06 0 0 Z " fill="#F8F9F9" transform="translate(160,141)"/>
<path d="M0 0 C2.97 0 5.94 0 9 0 C9 2.97 9 5.94 9 9 C6.03 9 3.06 9 0 9 C0 6.03 0 3.06 0 0 Z " fill="#E4E4E4" transform="translate(94,141)"/>
<path d="M0 0 C2.97 0 5.94 0 9 0 C9 2.97 9 5.94 9 9 C6.03 9 3.06 9 0 9 C0 6.03 0 3.06 0 0 Z " fill="#E4E4E4" transform="translate(75,141)"/>
<path d="M0 0 C2.97 0 5.94 0 9 0 C9 2.97 9 5.94 9 9 C6.03 9 3.06 9 0 9 C0 6.03 0 3.06 0 0 Z " fill="#F9F9F9" transform="translate(66,141)"/>
<path d="M0 0 C2.97 0 5.94 0 9 0 C9 2.97 9 5.94 9 9 C6.03 9 3.06 9 0 9 C0 6.03 0 3.06 0 0 Z " fill="#E4E4E4" transform="translate(19,141)"/>
<path d="M0 0 C2.97 0 5.94 0 9 0 C9 2.97 9 5.94 9 9 C6.03 9 3.06 9 0 9 C0 6.03 0 3.06 0 0 Z " fill="#E4E4E4" transform="translate(0,141)"/>
<path d="M0 0 C2.97 0 5.94 0 9 0 C9 2.97 9 5.94 9 9 C6.03 9 3.06 9 0 9 C0 6.03 0 3.06 0 0 Z " fill="#F8F8F8" transform="translate(206,131)"/>
<path d="M0 0 C2.05078125 0.03255208 4.1015625 0.06510417 6.15234375 0.09765625 C6.15234375 3.06765625 6.15234375 6.03765625 6.15234375 9.09765625 C3.08344188 10.63210719 0.45140109 9.64749914 -2.84765625 9.09765625 C-2.9453125 2.9453125 -2.9453125 2.9453125 -2.84765625 1.09765625 C-1.84765625 0.09765625 -1.84765625 0.09765625 0 0 Z " fill="#E5E5E5" transform="translate(162.84765625,130.90234375)"/>
<path d="M0 0 C2.97 0 5.94 0 9 0 C9 2.97 9 5.94 9 9 C6.03 9 3.06 9 0 9 C0 6.03 0 3.06 0 0 Z " fill="#F9F9F9" transform="translate(75,131)"/>
<path d="M0 0 C2.97 0 5.94 0 9 0 C9 2.97 9 5.94 9 9 C6.03 9 3.06 9 0 9 C0 6.03 0 3.06 0 0 Z " fill="#E5E5E5" transform="translate(66,131)"/>
<path d="M0 0 C2.97 0 5.94 0 9 0 C9 2.97 9 5.94 9 9 C6.03 9 3.06 9 0 9 C0 6.03 0 3.06 0 0 Z " fill="#F8F8F8" transform="translate(56,131)"/>
<path d="M0 0 C2.05078125 0.03255208 4.1015625 0.06510417 6.15234375 0.09765625 C6.15234375 3.06765625 6.15234375 6.03765625 6.15234375 9.09765625 C3.08344188 10.63210719 0.45140109 9.64749914 -2.84765625 9.09765625 C-2.9453125 2.9453125 -2.9453125 2.9453125 -2.84765625 1.09765625 C-1.84765625 0.09765625 -1.84765625 0.09765625 0 0 Z " fill="#E5E5E5" transform="translate(12.84765625,130.90234375)"/>
<path d="M0 0 C2.97 0 5.94 0 9 0 C9 2.97 9 5.94 9 9 C6.03 9 3.06 9 0 9 C0 6.03 0 3.06 0 0 Z " fill="#F8F8F8" transform="translate(0,131)"/>
<path d="M0 0 C2.97 0 5.94 0 9 0 C9 2.97 9 5.94 9 9 C6.03 9 3.06 9 0 9 C0 6.03 0 3.06 0 0 Z " fill="#F9F9F9" transform="translate(216,122)"/>
<path d="M0 0 C2.97 0 5.94 0 9 0 C9 2.97 9 5.94 9 9 C6.03 9 3.06 9 0 9 C0 6.03 0 3.06 0 0 Z " fill="#F8F8F8" transform="translate(160,122)"/>
<path d="M0 0 C2.97 0 5.94 0 9 0 C9 2.97 9 5.94 9 9 C6.03 9 3.06 9 0 9 C0 6.03 0 3.06 0 0 Z " fill="#F9F9F9" transform="translate(66,122)"/>
<path d="M0 0 C2.97 0 5.94 0 9 0 C9 2.97 9 5.94 9 9 C6.03 9 3.06 9 0 9 C0 6.03 0 3.06 0 0 Z " fill="#E5E5E5" transform="translate(56,122)"/>
<path d="M0 0 C2.97 0 5.94 0 9 0 C9 2.97 9 5.94 9 9 C6.03 9 3.06 9 0 9 C0 6.03 0 3.06 0 0 Z " fill="#F9F9F9" transform="translate(10,122)"/>
<path d="M0 0 C2.97 0 5.94 0 9 0 C9 2.97 9 5.94 9 9 C6.03 9 3.06 9 0 9 C0 6.03 0 3.06 0 0 Z " fill="#E4E4E4" transform="translate(0,122)"/>
<path d="M0 0 C2.97 0 5.94 0 9 0 C9 2.97 9 5.94 9 9 C6.03 9 3.06 9 0 9 C0 6.03 0 3.06 0 0 Z " fill="#E4E4E4" transform="translate(216,113)"/>
<path d="M0 0 C2.97 0 5.94 0 9 0 C9 2.97 9 5.94 9 9 C6.03 9 3.06 9 0 9 C0 6.03 0 3.06 0 0 Z " fill="#F9F9F9" transform="translate(169,113)"/>
<path d="M0 0 C2.97 0 5.94 0 9 0 C9 2.97 9 5.94 9 9 C6.03 9 3.06 9 0 9 C0 6.03 0 3.06 0 0 Z " fill="#E5E5E5" transform="translate(160,113)"/>
<path d="M0 0 C2.97 0 5.94 0 9 0 C9 2.97 9 5.94 9 9 C6.03 9 3.06 9 0 9 C0 6.03 0 3.06 0 0 Z " fill="#F9F9F9" transform="translate(150,113)"/>
<path d="M0 0 C2.97 0 5.94 0 9 0 C9 2.97 9 5.94 9 9 C6.03 9 3.06 9 0 9 C0 6.03 0 3.06 0 0 Z " fill="#F9F9F9" transform="translate(113,113)"/>
<path d="M0 0 C2.97 0 5.94 0 9 0 C9 2.97 9 5.94 9 9 C6.03 9 3.06 9 0 9 C0 6.03 0 3.06 0 0 Z " fill="#E4E4E4" transform="translate(66,113)"/>
<path d="M0 0 C2.97 0 5.94 0 9 0 C9 2.97 9 5.94 9 9 C6.03 9 3.06 9 0 9 C0 6.03 0 3.06 0 0 Z " fill="#F9F9F9" transform="translate(19,113)"/>
<path d="M0 0 C2.97 0 5.94 0 9 0 C9 2.97 9 5.94 9 9 C6.03 9 3.06 9 0 9 C0 6.03 0 3.06 0 0 Z " fill="#E5E5E5" transform="translate(10,113)"/>
<path d="M0 0 C2.97 0 5.94 0 9 0 C9 2.97 9 5.94 9 9 C6.03 9 3.06 9 0 9 C0 6.03 0 3.06 0 0 Z " fill="#F9F9F9" transform="translate(0,113)"/>
<path d="M0 0 C2.97 0 5.94 0 9 0 C9 2.97 9 5.94 9 9 C6.03 9 3.06 9 0 9 C0 6.03 0 3.06 0 0 Z " fill="#F9F9F9" transform="translate(216,103)"/>
<path d="M0 0 C2.97 0 5.94 0 9 0 C9 2.97 9 5.94 9 9 C6.03 9 3.06 9 0 9 C0 6.03 0 3.06 0 0 Z " fill="#E4E4E4" transform="translate(169,103)"/>
<path d="M0 0 C2.97 0 5.94 0 9 0 C9 2.97 9 5.94 9 9 C6.03 9 3.06 9 0 9 C0 6.03 0 3.06 0 0 Z " fill="#F8F8F8" transform="translate(160,103)"/>
<path d="M0 0 C2.97 0 5.94 0 9 0 C9 2.97 9 5.94 9 9 C6.03 9 3.06 9 0 9 C0 6.03 0 3.06 0 0 Z " fill="#E4E4E4" transform="translate(150,103)"/>
<path d="M0 0 C2.97 0 5.94 0 9 0 C9 2.97 9 5.94 9 9 C6.03 9 3.06 9 0 9 C0 6.03 0 3.06 0 0 Z " fill="#F9F9F9" transform="translate(141,103)"/>
<path d="M0 0 C2.97 0 5.94 0 9 0 C9 2.97 9 5.94 9 9 C6.03 9 3.06 9 0 9 C0 6.03 0 3.06 0 0 Z " fill="#F9F9F9" transform="translate(122,103)"/>
<path d="M0 0 C2.97 0 5.94 0 9 0 C9 2.97 9 5.94 9 9 C6.03 9 3.06 9 0 9 C0 6.03 0 3.06 0 0 Z " fill="#E4E4E4" transform="translate(113,103)"/>
<path d="M0 0 C2.97 0 5.94 0 9 0 C9 2.97 9 5.94 9 9 C6.03 9 3.06 9 0 9 C0 6.03 0 3.06 0 0 Z " fill="#E5E5E5" transform="translate(56,103)"/>
<path d="M0 0 C2.97 0 5.94 0 9 0 C9 2.97 9 5.94 9 9 C6.03 9 3.06 9 0 9 C0 6.03 0 3.06 0 0 Z " fill="#E4E4E4" transform="translate(19,103)"/>
<path d="M0 0 C2.97 0 5.94 0 9 0 C9 2.97 9 5.94 9 9 C6.03 9 3.06 9 0 9 C0 6.03 0 3.06 0 0 Z " fill="#F8F8F8" transform="translate(10,103)"/>
<path d="M0 0 C2.97 0 5.94 0 9 0 C9 2.97 9 5.94 9 9 C6.03 9 3.06 9 0 9 C0 6.03 0 3.06 0 0 Z " fill="#E4E4E4" transform="translate(0,103)"/>
<path d="M0 0 C2.97 0 5.94 0 9 0 C9 2.97 9 5.94 9 9 C6.03 9 3.06 9 0 9 C0 6.03 0 3.06 0 0 Z " fill="#E4E4E4" transform="translate(216,94)"/>
<path d="M0 0 C2.97 0 5.94 0 9 0 C9 2.97 9 5.94 9 9 C6.03 9 3.06 9 0 9 C0 6.03 0 3.06 0 0 Z " fill="#F9F9F9" transform="translate(169,94)"/>
<path d="M0 0 C2.97 0 5.94 0 9 0 C9 2.97 9 5.94 9 9 C6.03 9 3.06 9 0 9 C0 6.03 0 3.06 0 0 Z " fill="#E5E5E5" transform="translate(160,94)"/>
<path d="M0 0 C2.97 0 5.94 0 9 0 C9 2.97 9 5.94 9 9 C6.03 9 3.06 9 0 9 C0 6.03 0 3.06 0 0 Z " fill="#F9F9F9" transform="translate(150,94)"/>
<path d="M0 0 C2.97 0 5.94 0 9 0 C9 2.97 9 5.94 9 9 C6.03 9 3.06 9 0 9 C0 6.03 0 3.06 0 0 Z " fill="#E4E4E4" transform="translate(141,94)"/>
<path d="M0 0 C2.97 0 5.94 0 9 0 C9 2.97 9 5.94 9 9 C6.03 9 3.06 9 0 9 C0 6.03 0 3.06 0 0 Z " fill="#F9F9F9" transform="translate(131,94)"/>
<path d="M0 0 C2.97 0 5.94 0 9 0 C9 2.97 9 5.94 9 9 C6.03 9 3.06 9 0 9 C0 6.03 0 3.06 0 0 Z " fill="#E4E4E4" transform="translate(122,94)"/>
<path d="M0 0 C2.97 0 5.94 0 9 0 C9 2.97 9 5.94 9 9 C6.03 9 3.06 9 0 9 C0 6.03 0 3.06 0 0 Z " fill="#F9F9F9" transform="translate(113,94)"/>
<path d="M0 0 C2.97 0 5.94 0 9 0 C9 2.97 9 5.94 9 9 C6.03 9 3.06 9 0 9 C0 6.03 0 3.06 0 0 Z " fill="#E4E4E4" transform="translate(103,94)"/>
<path d="M0 0 C2.97 0 5.94 0 9 0 C9 2.97 9 5.94 9 9 C6.03 9 3.06 9 0 9 C0 6.03 0 3.06 0 0 Z " fill="#F9F9F9" transform="translate(56,94)"/>
<path d="M0 0 C2.97 0 5.94 0 9 0 C9 2.97 9 5.94 9 9 C6.03 9 3.06 9 0 9 C0 6.03 0 3.06 0 0 Z " fill="#F9F9F9" transform="translate(19,94)"/>
<path d="M0 0 C2.97 0 5.94 0 9 0 C9 2.97 9 5.94 9 9 C6.03 9 3.06 9 0 9 C0 6.03 0 3.06 0 0 Z " fill="#F9F9F9" transform="translate(0,94)"/>
<path d="M0 0 C2.97 0 5.94 0 9 0 C9 2.97 9 5.94 9 9 C6.03 9 3.06 9 0 9 C0 6.03 0 3.06 0 0 Z " fill="#F9F9F9" transform="translate(197,85)"/>
<path d="M0 0 C2.97 0 5.94 0 9 0 C9 2.97 9 5.94 9 9 C6.03 9 3.06 9 0 9 C0 6.03 0 3.06 0 0 Z " fill="#E5E5E5" transform="translate(150,85)"/>
<path d="M0 0 C2.97 0 5.94 0 9 0 C9 2.97 9 5.94 9 9 C6.03 9 3.06 9 0 9 C0 6.03 0 3.06 0 0 Z " fill="#F8F8F8" transform="translate(141,85)"/>
<path d="M0 0 C2.97 0 5.94 0 9 0 C9 2.97 9 5.94 9 9 C6.03 9 3.06 9 0 9 C0 6.03 0 3.06 0 0 Z " fill="#F8F8F8" transform="translate(122,85)"/>
<path d="M0 0 C2.97 0 5.94 0 9 0 C9 2.97 9 5.94 9 9 C6.03 9 3.06 9 0 9 C0 6.03 0 3.06 0 0 Z " fill="#E5E5E5" transform="translate(113,85)"/>
<path d="M0 0 C2.97 0 5.94 0 9 0 C9 2.97 9 5.94 9 9 C6.03 9 3.06 9 0 9 C0 6.03 0 3.06 0 0 Z " fill="#F8F8F8" transform="translate(103,85)"/>
<path d="M0 0 C2.97 0 5.94 0 9 0 C9 2.97 9 5.94 9 9 C6.03 9 3.06 9 0 9 C0 6.03 0 3.06 0 0 Z " fill="#E4E4E4" transform="translate(216,75)"/>
<path d="M0 0 C2.97 0 5.94 0 9 0 C9 2.97 9 5.94 9 9 C6.03 9 3.06 9 0 9 C0 6.03 0 3.06 0 0 Z " fill="#F8F8F8" transform="translate(206,75)"/>
<path d="M0 0 C2.97 0 5.94 0 9 0 C9 2.97 9 5.94 9 9 C6.03 9 3.06 9 0 9 C0 6.03 0 3.06 0 0 Z " fill="#E4E4E4" transform="translate(197,75)"/>
<path d="M0 0 C2.97 0 5.94 0 9 0 C9 2.97 9 5.94 9 9 C6.03 9 3.06 9 0 9 C0 6.03 0 3.06 0 0 Z " fill="#F9F9F9" transform="translate(150,75)"/>
<path d="M0 0 C2.97 0 5.94 0 9 0 C9 2.97 9 5.94 9 9 C6.03 9 3.06 9 0 9 C0 6.03 0 3.06 0 0 Z " fill="#E4E4E4" transform="translate(141,75)"/>
<path d="M0 0 C2.97 0 5.94 0 9 0 C9 2.97 9 5.94 9 9 C6.03 9 3.06 9 0 9 C0 6.03 0 3.06 0 0 Z " fill="#F9F9F9" transform="translate(131,75)"/>
<path d="M0 0 C2.97 0 5.94 0 9 0 C9 2.97 9 5.94 9 9 C6.03 9 3.06 9 0 9 C0 6.03 0 3.06 0 0 Z " fill="#E4E4E4" transform="translate(122,75)"/>
<path d="M0 0 C2.97 0 5.94 0 9 0 C9 2.97 9 5.94 9 9 C6.03 9 3.06 9 0 9 C0 6.03 0 3.06 0 0 Z " fill="#F9F9F9" transform="translate(113,75)"/>
<path d="M0 0 C2.97 0 5.94 0 9 0 C9 2.97 9 5.94 9 9 C6.03 9 3.06 9 0 9 C0 6.03 0 3.06 0 0 Z " fill="#E5E5E5" transform="translate(103,75)"/>
<path d="M0 0 C2.97 0 5.94 0 9 0 C9 2.97 9 5.94 9 9 C6.03 9 3.06 9 0 9 C0 6.03 0 3.06 0 0 Z " fill="#F9F9F9" transform="translate(56,75)"/>
<path d="M0 0 C2.97 0 5.94 0 9 0 C9 2.97 9 5.94 9 9 C6.03 9 3.06 9 0 9 C0 6.03 0 3.06 0 0 Z " fill="#E5E5E5" transform="translate(10,75)"/>
<path d="M0 0 C2.97 0 5.94 0 9 0 C9 2.97 9 5.94 9 9 C6.03 9 3.06 9 0 9 C0 6.03 0 3.06 0 0 Z " fill="#F9F9F9" transform="translate(0,75)"/>
<path d="M0 0 C2.97 0 5.94 0 9 0 C9 2.97 9 5.94 9 9 C6.03 9 3.06 9 0 9 C0 6.03 0 3.06 0 0 Z " fill="#F9F9F9" transform="translate(216,66)"/>
<path d="M0 0 C2.97 0 5.94 0 9 0 C9 2.97 9 5.94 9 9 C6.03 9 3.06 9 0 9 C0 6.03 0 3.06 0 0 Z " fill="#E5E5E5" transform="translate(206,66)"/>
<path d="M0 0 C2.97 0 5.94 0 9 0 C9 2.97 9 5.94 9 9 C6.03 9 3.06 9 0 9 C0 6.03 0 3.06 0 0 Z " fill="#F9F9F9" transform="translate(197,66)"/>
<path d="M0 0 C2.97 0 5.94 0 9 0 C9 2.97 9 5.94 9 9 C6.03 9 3.06 9 0 9 C0 6.03 0 3.06 0 0 Z " fill="#E4E4E4" transform="translate(150,66)"/>
<path d="M0 0 C2.97 0 5.94 0 9 0 C9 2.97 9 5.94 9 9 C6.03 9 3.06 9 0 9 C0 6.03 0 3.06 0 0 Z " fill="#F9F9F9" transform="translate(141,66)"/>
<path d="M0 0 C2.97 0 5.94 0 9 0 C9 2.97 9 5.94 9 9 C6.03 9 3.06 9 0 9 C0 6.03 0 3.06 0 0 Z " fill="#E5E5E5" transform="translate(131,66)"/>
<path d="M0 0 C2.97 0 5.94 0 9 0 C9 2.97 9 5.94 9 9 C6.03 9 3.06 9 0 9 C0 6.03 0 3.06 0 0 Z " fill="#F9F9F9" transform="translate(122,66)"/>
<path d="M0 0 C2.97 0 5.94 0 9 0 C9 2.97 9 5.94 9 9 C6.03 9 3.06 9 0 9 C0 6.03 0 3.06 0 0 Z " fill="#E4E4E4" transform="translate(113,66)"/>
<path d="M0 0 C2.97 0 5.94 0 9 0 C9 2.97 9 5.94 9 9 C6.03 9 3.06 9 0 9 C0 6.03 0 3.06 0 0 Z " fill="#F9F9F9" transform="translate(103,66)"/>
<path d="M0 0 C2.97 0 5.94 0 9 0 C9 2.97 9 5.94 9 9 C6.03 9 3.06 9 0 9 C0 6.03 0 3.06 0 0 Z " fill="#E4E4E4" transform="translate(94,66)"/>
<path d="M0 0 C2.97 0 5.94 0 9 0 C9 2.97 9 5.94 9 9 C6.03 9 3.06 9 0 9 C0 6.03 0 3.06 0 0 Z " fill="#F9F9F9" transform="translate(66,66)"/>
<path d="M0 0 C2.97 0 5.94 0 9 0 C9 2.97 9 5.94 9 9 C6.03 9 3.06 9 0 9 C0 6.03 0 3.06 0 0 Z " fill="#E4E4E4" transform="translate(19,66)"/>
<path d="M0 0 C2.97 0 5.94 0 9 0 C9 2.97 9 5.94 9 9 C6.03 9 3.06 9 0 9 C0 6.03 0 3.06 0 0 Z " fill="#F8F8F8" transform="translate(10,66)"/>
<path d="M0 0 C2.97 0 5.94 0 9 0 C9 2.97 9 5.94 9 9 C6.03 9 3.06 9 0 9 C0 6.03 0 3.06 0 0 Z " fill="#E4E4E4" transform="translate(0,66)"/>
<path d="M0 0 C2.97 0 5.94 0 9 0 C9 2.97 9 5.94 9 9 C6.03 9 3.06 9 0 9 C0 6.03 0 3.06 0 0 Z " fill="#E5E5E5" transform="translate(216,56)"/>
<path d="M0 0 C2.97 0 5.94 0 9 0 C9 2.97 9 5.94 9 9 C6.03 9 3.06 9 0 9 C0 6.03 0 3.06 0 0 Z " fill="#F8F8F8" transform="translate(206,56)"/>
<path d="M0 0 C2.97 0 5.94 0 9 0 C9 2.97 9 5.94 9 9 C6.03 9 3.06 9 0 9 C0 6.03 0 3.06 0 0 Z " fill="#E5E5E5" transform="translate(197,56)"/>
<path d="M0 0 C2.97 0 5.94 0 9 0 C9 2.97 9 5.94 9 9 C6.03 9 3.06 9 0 9 C0 6.03 0 3.06 0 0 Z " fill="#F8F8F8" transform="translate(188,56)"/>
<path d="M0 0 C2.97 0 5.94 0 9 0 C9 2.97 9 5.94 9 9 C6.03 9 3.06 9 0 9 C0 6.03 0 3.06 0 0 Z " fill="#F8F8F8" transform="translate(131,56)"/>
<path d="M0 0 C2.97 0 5.94 0 9 0 C9 2.97 9 5.94 9 9 C6.03 9 3.06 9 0 9 C0 6.03 0 3.06 0 0 Z " fill="#E5E5E5" transform="translate(122,56)"/>
<path d="M0 0 C2.97 0 5.94 0 9 0 C9 2.97 9 5.94 9 9 C6.03 9 3.06 9 0 9 C0 6.03 0 3.06 0 0 Z " fill="#F8F8F8" transform="translate(113,56)"/>
<path d="M0 0 C2.97 0 5.94 0 9 0 C9 2.97 9 5.94 9 9 C6.03 9 3.06 9 0 9 C0 6.03 0 3.06 0 0 Z " fill="#F9F9F9" transform="translate(75,56)"/>
<path d="M0 0 C2.97 0 5.94 0 9 0 C9 2.97 9 5.94 9 9 C6.03 9 3.06 9 0 9 C0 6.03 0 3.06 0 0 Z " fill="#E5E5E5" transform="translate(28,56)"/>
<path d="M0 0 C2.97 0 5.94 0 9 0 C9 2.97 9 5.94 9 9 C6.03 9 3.06 9 0 9 C0 6.03 0 3.06 0 0 Z " fill="#F9F9F9" transform="translate(19,56)"/>
<path d="M0 0 C2.97 0 5.94 0 9 0 C9 2.97 9 5.94 9 9 C6.03 9 3.06 9 0 9 C0 6.03 0 3.06 0 0 Z " fill="#F9F9F9" transform="translate(0,56)"/>
<path d="M0 0 C2.97 0 5.94 0 9 0 C9 2.97 9 5.94 9 9 C6.03 9 3.06 9 0 9 C0 6.03 0 3.06 0 0 Z " fill="#F9F9F9" transform="translate(216,47)"/>
<path d="M0 0 C2.97 0 5.94 0 9 0 C9 2.97 9 5.94 9 9 C6.03 9 3.06 9 0 9 C0 6.03 0 3.06 0 0 Z " fill="#F9F9F9" transform="translate(197,47)"/>
<path d="M0 0 C2.97 0 5.94 0 9 0 C9 2.97 9 5.94 9 9 C6.03 9 3.06 9 0 9 C0 6.03 0 3.06 0 0 Z " fill="#F9F9F9" transform="translate(178,47)"/>
<path d="M0 0 C2.97 0 5.94 0 9 0 C9 2.97 9 5.94 9 9 C6.03 9 3.06 9 0 9 C0 6.03 0 3.06 0 0 Z " fill="#E4E4E4" transform="translate(113,47)"/>
<path d="M0 0 C2.97 0 5.94 0 9 0 C9 2.97 9 5.94 9 9 C6.03 9 3.06 9 0 9 C0 6.03 0 3.06 0 0 Z " fill="#F9F9F9" transform="translate(103,47)"/>
<path d="M0 0 C2.97 0 5.94 0 9 0 C9 2.97 9 5.94 9 9 C6.03 9 3.06 9 0 9 C0 6.03 0 3.06 0 0 Z " fill="#E5E5E5" transform="translate(38,47)"/>
<path d="M0 0 C2.97 0 5.94 0 9 0 C9 2.97 9 5.94 9 9 C6.03 9 3.06 9 0 9 C0 6.03 0 3.06 0 0 Z " fill="#F9F9F9" transform="translate(28,47)"/>
<path d="M0 0 C2.97 0 5.94 0 9 0 C9 2.97 9 5.94 9 9 C6.03 9 3.06 9 0 9 C0 6.03 0 3.06 0 0 Z " fill="#E4E4E4" transform="translate(19,47)"/>
<path d="M0 0 C2.97 0 5.94 0 9 0 C9 2.97 9 5.94 9 9 C6.03 9 3.06 9 0 9 C0 6.03 0 3.06 0 0 Z " fill="#F9F9F9" transform="translate(10,47)"/>
<path d="M0 0 C2.97 0 5.94 0 9 0 C9 2.97 9 5.94 9 9 C6.03 9 3.06 9 0 9 C0 6.03 0 3.06 0 0 Z " fill="#E4E4E4" transform="translate(0,47)"/>
<path d="M0 0 C2.97 0 5.94 0 9 0 C9 2.97 9 5.94 9 9 C6.03 9 3.06 9 0 9 C0 6.03 0 3.06 0 0 Z " fill="#E5E5E5" transform="translate(216,38)"/>
<path d="M0 0 C2.97 0 5.94 0 9 0 C9 2.97 9 5.94 9 9 C6.03 9 3.06 9 0 9 C0 6.03 0 3.06 0 0 Z " fill="#F8F8F8" transform="translate(188,38)"/>
<path d="M0 0 C2.97 0 5.94 0 9 0 C9 2.97 9 5.94 9 9 C6.03 9 3.06 9 0 9 C0 6.03 0 3.06 0 0 Z " fill="#E5E5E5" transform="translate(178,38)"/>
<path d="M0 0 C2.97 0 5.94 0 9 0 C9 2.97 9 5.94 9 9 C6.03 9 3.06 9 0 9 C0 6.03 0 3.06 0 0 Z " fill="#F9F9F9" transform="translate(169,38)"/>
<path d="M0 0 C2.97 0 5.94 0 9 0 C9 2.97 9 5.94 9 9 C6.03 9 3.06 9 0 9 C0 6.03 0 3.06 0 0 Z " fill="#F8F8F8" transform="translate(38,38)"/>
<path d="M0 0 C2.97 0 5.94 0 9 0 C9 2.97 9 5.94 9 9 C6.03 9 3.06 9 0 9 C0 6.03 0 3.06 0 0 Z " fill="#E5E5E5" transform="translate(28,38)"/>
<path d="M0 0 C2.97 0 5.94 0 9 0 C9 2.97 9 5.94 9 9 C6.03 9 3.06 9 0 9 C0 6.03 0 3.06 0 0 Z " fill="#F8F8F8" transform="translate(19,38)"/>
<path d="M0 0 C2.97 0 5.94 0 9 0 C9 2.97 9 5.94 9 9 C6.03 9 3.06 9 0 9 C0 6.03 0 3.06 0 0 Z " fill="#F8F8F8" transform="translate(0,38)"/>
<path d="M0 0 C2.97 0 5.94 0 9 0 C9 2.97 9 5.94 9 9 C6.03 9 3.06 9 0 9 C0 6.03 0 3.06 0 0 Z " fill="#F9F9F9" transform="translate(197,28)"/>
<path d="M0 0 C2.97 0 5.94 0 9 0 C9 2.97 9 5.94 9 9 C6.03 9 3.06 9 0 9 C0 6.03 0 3.06 0 0 Z " fill="#E5E5E5" transform="translate(188,28)"/>
<path d="M0 0 C2.97 0 5.94 0 9 0 C9 2.97 9 5.94 9 9 C6.03 9 3.06 9 0 9 C0 6.03 0 3.06 0 0 Z " fill="#F8F8F8" transform="translate(178,28)"/>
<path d="M0 0 C2.97 0 5.94 0 9 0 C9 2.97 9 5.94 9 9 C6.03 9 3.06 9 0 9 C0 6.03 0 3.06 0 0 Z " fill="#E4E4E4" transform="translate(169,28)"/>
<path d="M0 0 C2.97 0 5.94 0 9 0 C9 2.97 9 5.94 9 9 C6.03 9 3.06 9 0 9 C0 6.03 0 3.06 0 0 Z " fill="#F8F8F8" transform="translate(160,28)"/>
<path d="M0 0 C2.97 0 5.94 0 9 0 C9 2.97 9 5.94 9 9 C6.03 9 3.06 9 0 9 C0 6.03 0 3.06 0 0 Z " fill="#F9F9F9" transform="translate(47,28)"/>
<path d="M0 0 C2.97 0 5.94 0 9 0 C9 2.97 9 5.94 9 9 C6.03 9 3.06 9 0 9 C0 6.03 0 3.06 0 0 Z " fill="#E5E5E5" transform="translate(38,28)"/>
<path d="M0 0 C2.97 0 5.94 0 9 0 C9 2.97 9 5.94 9 9 C6.03 9 3.06 9 0 9 C0 6.03 0 3.06 0 0 Z " fill="#F9F9F9" transform="translate(28,28)"/>
<path d="M0 0 C2.97 0 5.94 0 9 0 C9 2.97 9 5.94 9 9 C6.03 9 3.06 9 0 9 C0 6.03 0 3.06 0 0 Z " fill="#F8F8F8" transform="translate(10,28)"/>
<path d="M0 0 C2.97 0 5.94 0 9 0 C9 2.97 9 5.94 9 9 C6.03 9 3.06 9 0 9 C0 6.03 0 3.06 0 0 Z " fill="#E5E5E5" transform="translate(0,28)"/>
<path d="M0 0 C2.97 0 5.94 0 9 0 C9 2.97 9 5.94 9 9 C6.03 9 3.06 9 0 9 C0 6.03 0 3.06 0 0 Z " fill="#E4E4E4" transform="translate(216,19)"/>
<path d="M0 0 C2.97 0 5.94 0 9 0 C9 2.97 9 5.94 9 9 C6.03 9 3.06 9 0 9 C0 6.03 0 3.06 0 0 Z " fill="#E4E4E4" transform="translate(197,19)"/>
<path d="M0 0 C2.97 0 5.94 0 9 0 C9 2.97 9 5.94 9 9 C6.03 9 3.06 9 0 9 C0 6.03 0 3.06 0 0 Z " fill="#F9F9F9" transform="translate(188,19)"/>
<path d="M0 0 C2.97 0 5.94 0 9 0 C9 2.97 9 5.94 9 9 C6.03 9 3.06 9 0 9 C0 6.03 0 3.06 0 0 Z " fill="#E5E5E5" transform="translate(178,19)"/>
<path d="M0 0 C2.97 0 5.94 0 9 0 C9 2.97 9 5.94 9 9 C6.03 9 3.06 9 0 9 C0 6.03 0 3.06 0 0 Z " fill="#F9F9F9" transform="translate(169,19)"/>
<path d="M0 0 C2.97 0 5.94 0 9 0 C9 2.97 9 5.94 9 9 C6.03 9 3.06 9 0 9 C0 6.03 0 3.06 0 0 Z " fill="#E5E5E5" transform="translate(160,19)"/>
<path d="M0 0 C2.97 0 5.94 0 9 0 C9 2.97 9 5.94 9 9 C6.03 9 3.06 9 0 9 C0 6.03 0 3.06 0 0 Z " fill="#F9F9F9" transform="translate(150,19)"/>
<path d="M0 0 C2.97 0 5.94 0 9 0 C9 2.97 9 5.94 9 9 C6.03 9 3.06 9 0 9 C0 6.03 0 3.06 0 0 Z " fill="#E4E4E4" transform="translate(141,19)"/>
<path d="M0 0 C2.97 0 5.94 0 9 0 C9 2.97 9 5.94 9 9 C6.03 9 3.06 9 0 9 C0 6.03 0 3.06 0 0 Z " fill="#F9F9F9" transform="translate(113,19)"/>
<path d="M0 0 C2.97 0 5.94 0 9 0 C9 2.97 9 5.94 9 9 C6.03 9 3.06 9 0 9 C0 6.03 0 3.06 0 0 Z " fill="#F9F9F9" transform="translate(94,19)"/>
<path d="M0 0 C2.97 0 5.94 0 9 0 C9 2.97 9 5.94 9 9 C6.03 9 3.06 9 0 9 C0 6.03 0 3.06 0 0 Z " fill="#E5E5E5" transform="translate(85,19)"/>
<path d="M0 0 C2.97 0 5.94 0 9 0 C9 2.97 9 5.94 9 9 C6.03 9 3.06 9 0 9 C0 6.03 0 3.06 0 0 Z " fill="#F9F9F9" transform="translate(75,19)"/>
<path d="M0 0 C2.97 0 5.94 0 9 0 C9 2.97 9 5.94 9 9 C6.03 9 3.06 9 0 9 C0 6.03 0 3.06 0 0 Z " fill="#F9F9F9" transform="translate(56,19)"/>
<path d="M0 0 C2.97 0 5.94 0 9 0 C9 2.97 9 5.94 9 9 C6.03 9 3.06 9 0 9 C0 6.03 0 3.06 0 0 Z " fill="#E4E4E4" transform="translate(47,19)"/>
<path d="M0 0 C2.97 0 5.94 0 9 0 C9 2.97 9 5.94 9 9 C6.03 9 3.06 9 0 9 C0 6.03 0 3.06 0 0 Z " fill="#F9F9F9" transform="translate(38,19)"/>
<path d="M0 0 C2.97 0 5.94 0 9 0 C9 2.97 9 5.94 9 9 C6.03 9 3.06 9 0 9 C0 6.03 0 3.06 0 0 Z " fill="#F9F9F9" transform="translate(19,19)"/>
<path d="M0 0 C2.97 0 5.94 0 9 0 C9 2.97 9 5.94 9 9 C6.03 9 3.06 9 0 9 C0 6.03 0 3.06 0 0 Z " fill="#E5E5E5" transform="translate(10,19)"/>
<path d="M0 0 C2.97 0 5.94 0 9 0 C9 2.97 9 5.94 9 9 C6.03 9 3.06 9 0 9 C0 6.03 0 3.06 0 0 Z " fill="#F9F9F9" transform="translate(0,19)"/>
<path d="M0 0 C2.97 0 5.94 0 9 0 C9 2.97 9 5.94 9 9 C6.03 9 3.06 9 0 9 C0 6.03 0 3.06 0 0 Z " fill="#F9F9F9" transform="translate(216,10)"/>
<path d="M0 0 C2.97 0 5.94 0 9 0 C9 2.97 9 5.94 9 9 C6.03 9 3.06 9 0 9 C0 6.03 0 3.06 0 0 Z " fill="#E5E5E5" transform="translate(188,10)"/>
<path d="M0 0 C2.97 0 5.94 0 9 0 C9 2.97 9 5.94 9 9 C6.03 9 3.06 9 0 9 C0 6.03 0 3.06 0 0 Z " fill="#F8F8F8" transform="translate(178,10)"/>
<path d="M0 0 C2.97 0 5.94 0 9 0 C9 2.97 9 5.94 9 9 C6.03 9 3.06 9 0 9 C0 6.03 0 3.06 0 0 Z " fill="#E5E5E5" transform="translate(169,10)"/>
<path d="M0 0 C2.97 0 5.94 0 9 0 C9 2.97 9 5.94 9 9 C6.03 9 3.06 9 0 9 C0 6.03 0 3.06 0 0 Z " fill="#E5E5E5" transform="translate(150,10)"/>
<path d="M0 0 C2.05078125 0.03255208 4.1015625 0.06510417 6.15234375 0.09765625 C7.03125 6.25 7.03125 6.25 7.15234375 8.09765625 C6.15234375 9.09765625 6.15234375 9.09765625 4.0859375 9.1953125 C3.26222656 9.18371094 2.43851563 9.17210937 1.58984375 9.16015625 C0.76355469 9.15113281 -0.06273437 9.14210938 -0.9140625 9.1328125 C-1.55214844 9.12121094 -2.19023437 9.10960937 -2.84765625 9.09765625 C-2.9453125 2.9453125 -2.9453125 2.9453125 -2.84765625 1.09765625 C-1.84765625 0.09765625 -1.84765625 0.09765625 0 0 Z " fill="#E5E5E5" transform="translate(133.84765625,9.90234375)"/>
<path d="M0 0 C2.97 0 5.94 0 9 0 C9 2.97 9 5.94 9 9 C6.03 9 3.06 9 0 9 C0 6.03 0 3.06 0 0 Z " fill="#F9F9F9" transform="translate(122,10)"/>
<path d="M0 0 C2.97 0 5.94 0 9 0 C9 2.97 9 5.94 9 9 C6.03 9 3.06 9 0 9 C0 6.03 0 3.06 0 0 Z " fill="#E5E5E5" transform="translate(113,10)"/>
<path d="M0 0 C2.97 0 5.94 0 9 0 C9 2.97 9 5.94 9 9 C6.03 9 3.06 9 0 9 C0 6.03 0 3.06 0 0 Z " fill="#F8F8F8" transform="translate(103,10)"/>
<path d="M0 0 C2.97 0 5.94 0 9 0 C9 2.97 9 5.94 9 9 C6.03 9 3.06 9 0 9 C0 6.03 0 3.06 0 0 Z " fill="#E5E5E5" transform="translate(94,10)"/>
<path d="M0 0 C2.97 0 5.94 0 9 0 C9 2.97 9 5.94 9 9 C6.03 9 3.06 9 0 9 C0 6.03 0 3.06 0 0 Z " fill="#E5E5E5" transform="translate(75,10)"/>
<path d="M0 0 C2.97 0 5.94 0 9 0 C9 2.97 9 5.94 9 9 C6.03 9 3.06 9 0 9 C0 6.03 0 3.06 0 0 Z " fill="#F9F9F9" transform="translate(66,10)"/>
<path d="M0 0 C2.97 0 5.94 0 9 0 C9 2.97 9 5.94 9 9 C6.03 9 3.06 9 0 9 C0 6.03 0 3.06 0 0 Z " fill="#F9F9F9" transform="translate(47,10)"/>
<path d="M0 0 C2.97 0 5.94 0 9 0 C9 2.97 9 5.94 9 9 C6.03 9 3.06 9 0 9 C0 6.03 0 3.06 0 0 Z " fill="#E5E5E5" transform="translate(38,10)"/>
<path d="M0 0 C2.97 0 5.94 0 9 0 C9 2.97 9 5.94 9 9 C6.03 9 3.06 9 0 9 C0 6.03 0 3.06 0 0 Z " fill="#F8F8F8" transform="translate(28,10)"/>
<path d="M0 0 C2.97 0 5.94 0 9 0 C9 2.97 9 5.94 9 9 C6.03 9 3.06 9 0 9 C0 6.03 0 3.06 0 0 Z " fill="#E5E5E5" transform="translate(19,10)"/>
<path d="M0 0 C2.97 0 5.94 0 9 0 C9 2.97 9 5.94 9 9 C6.03 9 3.06 9 0 9 C0 6.03 0 3.06 0 0 Z " fill="#E5E5E5" transform="translate(0,10)"/>
<path d="M0 0 C2.97 0 5.94 0 9 0 C9 2.97 9 5.94 9 9 C6.03 9 3.06 9 0 9 C0 6.03 0 3.06 0 0 Z " fill="#F8F8F8" transform="translate(206,0)"/>
<path d="M0 0 C2.97 0 5.94 0 9 0 C9 2.97 9 5.94 9 9 C6.03 9 3.06 9 0 9 C0 6.03 0 3.06 0 0 Z " fill="#E4E4E4" transform="translate(197,0)"/>
<path d="M0 0 C2.97 0 5.94 0 9 0 C9 2.97 9 5.94 9 9 C6.03 9 3.06 9 0 9 C0 6.03 0 3.06 0 0 Z " fill="#F9F9F9" transform="translate(188,0)"/>
<path d="M0 0 C2.97 0 5.94 0 9 0 C9 2.97 9 5.94 9 9 C6.03 9 3.06 9 0 9 C0 6.03 0 3.06 0 0 Z " fill="#E5E5E5" transform="translate(178,0)"/>
<path d="M0 0 C2.97 0 5.94 0 9 0 C9 2.97 9 5.94 9 9 C6.03 9 3.06 9 0 9 C0 6.03 0 3.06 0 0 Z " fill="#E5E5E5" transform="translate(160,0)"/>
<path d="M0 0 C2.97 0 5.94 0 9 0 C9 2.97 9 5.94 9 9 C6.03 9 3.06 9 0 9 C0 6.03 0 3.06 0 0 Z " fill="#F9F9F9" transform="translate(150,0)"/>
<path d="M0 0 C2.97 0 5.94 0 9 0 C9 2.97 9 5.94 9 9 C6.03 9 3.06 9 0 9 C0 6.03 0 3.06 0 0 Z " fill="#E4E4E4" transform="translate(141,0)"/>
<path d="M0 0 C2.97 0 5.94 0 9 0 C9 2.97 9 5.94 9 9 C6.03 9 3.06 9 0 9 C0 6.03 0 3.06 0 0 Z " fill="#F8F8F8" transform="translate(131,0)"/>
<path d="M0 0 C2.97 0 5.94 0 9 0 C9 2.97 9 5.94 9 9 C6.03 9 3.06 9 0 9 C0 6.03 0 3.06 0 0 Z " fill="#E4E4E4" transform="translate(122,0)"/>
<path d="M0 0 C2.97 0 5.94 0 9 0 C9 2.97 9 5.94 9 9 C6.03 9 3.06 9 0 9 C0 6.03 0 3.06 0 0 Z " fill="#F9F9F9" transform="translate(113,0)"/>
<path d="M0 0 C2.97 0 5.94 0 9 0 C9 2.97 9 5.94 9 9 C6.03 9 3.06 9 0 9 C0 6.03 0 3.06 0 0 Z " fill="#E5E5E5" transform="translate(103,0)"/>
<path d="M0 0 C2.97 0 5.94 0 9 0 C9 2.97 9 5.94 9 9 C6.03 9 3.06 9 0 9 C0 6.03 0 3.06 0 0 Z " fill="#E5E5E5" transform="translate(85,0)"/>
<path d="M0 0 C2.97 0 5.94 0 9 0 C9 2.97 9 5.94 9 9 C6.03 9 3.06 9 0 9 C0 6.03 0 3.06 0 0 Z " fill="#F9F9F9" transform="translate(75,0)"/>
<path d="M0 0 C2.97 0 5.94 0 9 0 C9 2.97 9 5.94 9 9 C6.03 9 3.06 9 0 9 C0 6.03 0 3.06 0 0 Z " fill="#E4E4E4" transform="translate(66,0)"/>
<path d="M0 0 C2.97 0 5.94 0 9 0 C9 2.97 9 5.94 9 9 C6.03 9 3.06 9 0 9 C0 6.03 0 3.06 0 0 Z " fill="#F8F8F8" transform="translate(56,0)"/>
<path d="M0 0 C2.97 0 5.94 0 9 0 C9 2.97 9 5.94 9 9 C6.03 9 3.06 9 0 9 C0 6.03 0 3.06 0 0 Z " fill="#E4E4E4" transform="translate(47,0)"/>
<path d="M0 0 C2.97 0 5.94 0 9 0 C9 2.97 9 5.94 9 9 C6.03 9 3.06 9 0 9 C0 6.03 0 3.06 0 0 Z " fill="#F8F8F8" transform="translate(38,0)"/>
<path d="M0 0 C2.97 0 5.94 0 9 0 C9 2.97 9 5.94 9 9 C6.03 9 3.06 9 0 9 C0 6.03 0 3.06 0 0 Z " fill="#E5E5E5" transform="translate(28,0)"/>
<path d="M0 0 C2.97 0 5.94 0 9 0 C9 2.97 9 5.94 9 9 C6.03 9 3.06 9 0 9 C0 6.03 0 3.06 0 0 Z " fill="#E5E5E5" transform="translate(10,0)"/>
<path d="M0 0 C2.97 0 5.94 0 9 0 C9 2.97 9 5.94 9 9 C6.03 9 3.06 9 0 9 C0 6.03 0 3.06 0 0 Z " fill="#F9F9F9" transform="translate(0,0)"/>
<path d="M0 0 C2.05078125 0.03255208 4.1015625 0.06510417 6.15234375 0.09765625 C6.15234375 3.06765625 6.15234375 6.03765625 6.15234375 9.09765625 C3.18234375 9.09765625 0.21234375 9.09765625 -2.84765625 9.09765625 C-2.9453125 2.9453125 -2.9453125 2.9453125 -2.84765625 1.09765625 C-1.84765625 0.09765625 -1.84765625 0.09765625 0 0 Z " fill="#F8F8F8" transform="translate(208.84765625,187.90234375)"/>
<path d="M0 0 C2.05078125 0.03255208 4.1015625 0.06510417 6.15234375 0.09765625 C6.15234375 3.06765625 6.15234375 6.03765625 6.15234375 9.09765625 C3.18234375 9.09765625 0.21234375 9.09765625 -2.84765625 9.09765625 C-2.9453125 2.9453125 -2.9453125 2.9453125 -2.84765625 1.09765625 C-1.84765625 0.09765625 -1.84765625 0.09765625 0 0 Z " fill="#F8F8F8" transform="translate(58.84765625,112.90234375)"/>
<path d="M0 0 C6.15234375 -0.09765625 6.15234375 -0.09765625 8 0 C9 1 9 1 9.09765625 2.84765625 C9.04882812 5.92382812 9.04882812 5.92382812 9 9 C6.03 9 3.06 9 0 9 C0 6.03 0 3.06 0 0 Z " fill="#F9F9F9" transform="translate(66,103)"/>
<path d="M0 0 C2.97 0 5.94 0 9 0 C9 2.97 9 5.94 9 9 C2.84765625 9.09765625 2.84765625 9.09765625 1 9 C0 8 0 8 -0.09765625 6.15234375 C-0.06510417 4.1015625 -0.03255208 2.05078125 0 0 Z " fill="#E5E5E5" transform="translate(103,56)"/>
<path d="M0 0 C0 2.97 0 5.94 0 9 C-2.97 9 -5.94 9 -9 9 C-9 6.36 -9 3.72 -9 1 C-6.04335481 -0.4783226 -3.25770263 -0.06032783 0 0 Z " fill="#F9F9F9" transform="translate(37,197)"/>
<path d="M0 0 C2.64 0 5.28 0 8 0 C8 2.97 8 5.94 8 9 C5.03 9 2.06 9 -1 9 C-1.125 2.25 -1.125 2.25 0 0 Z " fill="#E5E5E5" transform="translate(179,188)"/>
<path d="M0 0 C2.64 0 5.28 0 8 0 C8 2.97 8 5.94 8 9 C5.03 9 2.06 9 -1 9 C-1.125 2.25 -1.125 2.25 0 0 Z " fill="#F9F9F9" transform="translate(57,150)"/>
<path d="M0 0 C2.64 0 5.28 0 8 0 C8 2.97 8 5.94 8 9 C5.36 9 2.72 9 0 9 C-0.33 9.66 -0.66 10.32 -1 11 C-2.26264601 6.70700357 -1.62950412 4.12168689 0 0 Z " fill="#E1E4E1" transform="translate(57,141)"/>
<path d="M0 0 C3.3 0 6.6 0 10 0 C8.68 3.63 7.36 7.26 6 11 C4.02 10.34 2.04 9.68 0 9 C0 6.03 0 3.06 0 0 Z " fill="#E2E6E2" transform="translate(28,75)"/>
<path d="M0 0 C2.97 0 5.94 0 9 0 C9 2.97 9 5.94 9 9 C6.75 9.75 6.75 9.75 4 10 C1.6875 8.4375 1.6875 8.4375 0 6 C-0.25 2.75 -0.25 2.75 0 0 Z " fill="#E3E5E4" transform="translate(103,113)"/>
<path d="M0 0 C2.97 0 5.94 0 9 0 C8.125 7.875 8.125 7.875 7 9 C4.66702567 9.04092937 2.33294775 9.04241723 0 9 C0 6.03 0 3.06 0 0 Z " fill="#F8F9F8" transform="translate(28,160)"/>
<path d="M0 0 C2.64 0 5.28 0 8 0 C8.87890625 6.15234375 8.87890625 6.15234375 9 8 C8 9 8 9 5.93359375 9.09765625 C2.46679688 9.04882812 2.46679688 9.04882812 -1 9 C-0.67 6.03 -0.34 3.06 0 0 Z " fill="#E5E5E5" transform="translate(207,85)"/>
<path d="M0 0 C0.33 0 0.66 0 1 0 C1.66 4.95 2.32 9.9 3 15 C0.03 14.67 -2.94 14.34 -6 14 C-6 11.03 -6 8.06 -6 5 C-4.02 5 -2.04 5 0 5 C0 3.35 0 1.7 0 0 Z " fill="#D9E3DB" transform="translate(72,89)"/>
<path d="M0 0 C2.44839588 3.67259383 4 6.54648201 4 11 C1.03 11 -1.94 11 -5 11 C-5 8.03 -5 5.06 -5 2 C-3.35 1.34 -1.7 0.68 0 0 Z " fill="#DEE4DF" transform="translate(174,83)"/>
<path d="M0 0 C5.445 1.485 5.445 1.485 11 3 C10.01 3.495 10.01 3.495 9 4 C9 5.65 9 7.3 9 9 C6.03 9 3.06 9 0 9 C0 6.03 0 3.06 0 0 Z " fill="#E1E5E2" transform="translate(131,47)"/>
<path d="M0 0 C2.97 0.495 2.97 0.495 6 1 C6 3.97 6 6.94 6 10 C3.03 10 0.06 10 -3 10 C-2.39009109 6.44219804 -1.4216319 3.3171411 0 0 Z " fill="#E0E5E1" transform="translate(191,140)"/>
<path d="M0 0 C2.25 -0.3125 2.25 -0.3125 5 0 C7.3125 2.25 7.3125 2.25 9 5 C9 6.32 9 7.64 9 9 C6.03 9 3.06 9 0 9 C0 6.03 0 3.06 0 0 Z " fill="#F7F9F7" transform="translate(75,113)"/>
<path d="M0 0 C0 2.64 0 5.28 0 8 C-2.97 8 -5.94 8 -9 8 C-9.33 6.02 -9.66 4.04 -10 2 C-6.49223216 0.39644899 -3.85645121 -0.22036864 0 0 Z " fill="#F5F8F6" transform="translate(94,48)"/>
<path d="M0 0 C2.64 0 5.28 0 8 0 C8 3.3 8 6.6 8 10 C6.02 10.99 6.02 10.99 4 12 C3.3291288 10.3767313 2.66342971 8.75132422 2 7.125 C1.62875 6.22007812 1.2575 5.31515625 0.875 4.3828125 C0 2 0 2 0 0 Z " fill="#E1E6E2" transform="translate(48,131)"/>
<path d="M0 0 C2.97 0 5.94 0 9 0 C9 2.64 9 5.28 9 8 C9.66 8.33 10.32 8.66 11 9 C5.71862571 8.48474397 2.42778844 6.74522883 -2 4 C-1.34 2.68 -0.68 1.36 0 0 Z " fill="#DDE4DF" transform="translate(113,122)"/>
<path d="M0 0 C2.97 0 5.94 0 9 0 C9 1.98 9 3.96 9 6 C4.545 7.485 4.545 7.485 0 9 C0 6.03 0 3.06 0 0 Z " fill="#E2E5E3" transform="translate(75,28)"/>
<path d="M0 0 C2.64 0 5.28 0 8 0 C8 2.97 8 5.94 8 9 C6.02 9 4.04 9 2 9 C0.50178941 5.62902617 0 3.79557881 0 0 Z " fill="#F5F8F6" transform="translate(189,75)"/>
<path d="M0 0 C3.31234384 1.16379648 5.8898219 2.11238786 8 5 C8 6.32 8 7.64 8 9 C5.03 9 2.06 9 -1 9 C-1.09765625 2.84765625 -1.09765625 2.84765625 -1 1 C-0.67 0.67 -0.34 0.34 0 0 Z " fill="#F5F8F6" transform="translate(151,57)"/>
<path d="M0 0 C2.97 0 5.94 0 9 0 C9 2.64 9 5.28 9 8 C5.44219804 7.39009109 2.3171411 6.4216319 -1 5 C-0.67 3.35 -0.34 1.7 0 0 Z " fill="#DBE4DD" transform="translate(85,169)"/>
<path d="M0 0 C0 2.97 0 5.94 0 9 C-2.97 9 -5.94 9 -9 9 C-7.75697404 4.02789617 -5.53824738 0 0 0 Z " fill="#F9F9F9" transform="translate(178,169)"/>
<path d="M0 0 C2.97 0 5.94 0 9 0 C9 1.65 9 3.3 9 5 C4.545 6.485 4.545 6.485 0 8 C0 5.36 0 2.72 0 0 Z " fill="#F7F9F8" transform="translate(131,169)"/>
<path d="M0 0 C2.31 0 4.62 0 7 0 C6.14285714 8.57142857 6.14285714 8.57142857 4 12 C4 11.01 4 10.02 4 9 C2.68 9 1.36 9 0 9 C0 6.03 0 3.06 0 0 Z " fill="#DAE4DC" transform="translate(28,169)"/>
<path d="M0 0 C2.31 0 4.62 0 7 0 C6.67 2.97 6.34 5.94 6 9 C4.02 9 2.04 9 0 9 C0 6.03 0 3.06 0 0 Z " fill="#F9F9F9" transform="translate(66,85)"/>
<path d="M0 0 C5.17469679 1.2936742 5.91755537 2.80445036 9 7 C9 7.66 9 8.32 9 9 C6.03 9 3.06 9 0 9 C0 6.03 0 3.06 0 0 Z " fill="#F3F8F5" transform="translate(160,66)"/>
<path d="M0 0 C13.86 0.99 13.86 0.99 28 2 C28 2.33 28 2.66 28 3 C25.03 3 22.06 3 19 3 C19 5.64 19 8.28 19 11 C18.67 11 18.34 11 18 11 C18 8.36 18 5.72 18 3 C12.06 3 6.12 3 0 3 C0 2.01 0 1.02 0 0 Z " fill="#ECEFED" transform="translate(94,194)"/>
<path d="M0 0 C0 2.31 0 4.62 0 7 C-2.97 7 -5.94 7 -9 7 C-9.33 5.35 -9.66 3.7 -10 2 C-8.52112267 1.66538533 -7.04188942 1.33234333 -5.5625 1 C-4.32693359 0.7215625 -4.32693359 0.7215625 -3.06640625 0.4375 C-1 0 -1 0 0 0 Z " fill="#DFE4E0" transform="translate(56,190)"/>
<path d="M0 0 C1.65 0 3.3 0 5 0 C5 2.97 5 5.94 5 9 C2.69 9.33 0.38 9.66 -2 10 C-1.34 6.7 -0.68 3.4 0 0 Z " fill="#F8F9F8" transform="translate(154,131)"/>
<path d="M0 0 C0 2.97 0 5.94 0 9 C-2.97 9 -5.94 9 -9 9 C-3.2 0 -3.2 0 0 0 Z " fill="#DCE4DE" transform="translate(65,66)"/>
<path d="M0 0 C0 2.97 0 5.94 0 9 C-2.97 9 -5.94 9 -9 9 C-7.50363617 6.00727233 -4.091142 0 0 0 Z " fill="#E0E5E1" transform="translate(75,56)"/>
<path d="M0 0 C2.97 0 5.94 0 9 0 C6.68462045 3.72114571 4.71420527 6.61229661 1 9 C0 8 0 8 -0.09765625 6.15234375 C-0.06510417 4.1015625 -0.03255208 2.05078125 0 0 Z " fill="#DDE5DF" transform="translate(160,150)"/>
<path d="M0 0 C2.97 0 5.94 0 9 0 C6.98888806 4.02222388 5.59551067 5.48314253 2 8 C1.34 8 0.68 8 0 8 C0 5.36 0 2.72 0 0 Z " fill="#DEE5E0" transform="translate(150,160)"/>
<path d="M0 0 C1.17949219 0.01804687 2.35898438 0.03609375 3.57421875 0.0546875 C4.92966797 0.08949219 4.92966797 0.08949219 6.3125 0.125 C6.3125 1.775 6.3125 3.425 6.3125 5.125 C1.0325 4.135 -4.2475 3.145 -9.6875 2.125 C-6.05554504 -0.29630331 -4.30400652 -0.08522785 0 0 Z " fill="#D3E6D7" transform="translate(133.6875,27.875)"/>
<path d="M0 0 C0 0.33 0 0.66 0 1 C-2.31 1 -4.62 1 -7 1 C-7 3.97 -7 6.94 -7 10 C-7.33 10 -7.66 10 -8 10 C-8 7.03 -8 4.06 -8 1 C-13.94 1 -19.88 1 -26 1 C-26 3.97 -26 6.94 -26 10 C-26.33 10 -26.66 10 -27 10 C-27 6.7 -27 3.4 -27 0 C-24.0003508 -0.19654959 -21.00064899 -0.38246106 -18 -0.5625 C-17.16082031 -0.61857422 -16.32164062 -0.67464844 -15.45703125 -0.73242188 C-10.14062774 -1.0415151 -5.26352696 -0.82242609 0 0 Z " fill="#EEEEEE" transform="translate(167,215)"/>
<path d="M0 0 C0.33 0 0.66 0 1 0 C1 2.97 1 5.94 1 9 C3.31 9 5.62 9 8 9 C8 9.33 8 9.66 8 10 C5.69 10 3.38 10 1 10 C1 12.97 1 15.94 1 19 C0.67 19 0.34 19 0 19 C0 16.03 0 13.06 0 10 C-6.27 10 -12.54 10 -19 10 C-19 9.67 -19 9.34 -19 9 C-12.73 9 -6.46 9 0 9 C0 6.03 0 3.06 0 0 Z " fill="#F0F0F0" transform="translate(37,206)"/>
<path d="M0 0 C4.455 1.98 4.455 1.98 9 4 C9 4.99 9 5.98 9 7 C6.03 7 3.06 7 0 7 C0 4.69 0 2.38 0 0 Z " fill="#E1E5E1" transform="translate(113,143)"/>
<path d="M0 0 C0.99 0 1.98 0 3 0 C3 2.97 3 5.94 3 9 C0.69 9 -1.62 9 -4 9 C-3.52418802 7.68628013 -3.04424851 6.37405454 -2.5625 5.0625 C-2.29566406 4.33160156 -2.02882813 3.60070312 -1.75390625 2.84765625 C-1 1 -1 1 0 0 Z " fill="#F6F9F7" transform="translate(100,94)"/>
<path d="M0 0 C0.33 0 0.66 0 1 0 C1 5.94 1 11.88 1 18 C3.97 18 6.94 18 10 18 C10 18.33 10 18.66 10 19 C7.03 19 4.06 19 1 19 C1 21.97 1 24.94 1 28 C0.67 28 0.34 28 0 28 C0 25.03 0 22.06 0 19 C-2.31 19 -4.62 19 -7 19 C-7 18.67 -7 18.34 -7 18 C-4.69 18 -2.38 18 0 18 C0 12.06 0 6.12 0 0 Z " fill="#EEEEEE" transform="translate(65,197)"/>
<path d="M0 0 C4.95 0.99 4.95 0.99 10 2 C9.67 3.32 9.34 4.64 9 6 C6.03 6 3.06 6 0 6 C0 4.02 0 2.04 0 0 Z " fill="#DFE5E0" transform="translate(85,191)"/>
<path d="M0 0 C2.31 0 4.62 0 7 0 C5.87548273 2.9719385 4.77706209 5.33440687 3 8 C2.01 8 1.02 8 0 8 C0 5.36 0 2.72 0 0 Z " fill="#F4F8F5" transform="translate(122,122)"/>
<path d="M0 0 C0.33 0 0.66 0 1 0 C1 2.97 1 5.94 1 9 C3.97 9 6.94 9 10 9 C10 9.33 10 9.66 10 10 C7.03 10 4.06 10 1 10 C1 12.31 1 14.62 1 17 C0.67 17 0.34 17 0 17 C0 14.69 0 12.38 0 10 C-2.64 10 -5.28 10 -8 10 C-8 12.31 -8 14.62 -8 17 C-8.33 17 -8.66 17 -9 17 C-9 14.36 -9 11.72 -9 9 C-6.03 9 -3.06 9 0 9 C0 6.03 0 3.06 0 0 Z " fill="#EEEEEE" transform="translate(215,0)"/>
<path d="M0 0 C-2.26374611 2.26374611 -3.31012369 2.48351426 -6.375 3.125 C-7.14585938 3.29257813 -7.91671875 3.46015625 -8.7109375 3.6328125 C-11 4 -11 4 -15 4 C-15 2.68 -15 1.36 -15 0 C-9.76528314 -0.75612577 -5.22745859 -1.2063366 0 0 Z " fill="#EBF4ED" transform="translate(71,169)"/>
<path d="M0 0 C1.98 0 3.96 0 6 0 C6 2.97 6 5.94 6 9 C4.68 9.33 3.36 9.66 2 10 C1.34 6.7 0.68 3.4 0 0 Z " fill="#DDE5DF" transform="translate(97,85)"/>
<path d="M0 0 C0.33 0 0.66 0 1 0 C1.20483028 7.99976044 1.13480153 15.26134446 -1 23 C-1.33 23 -1.66 23 -2 23 C-2 18.38 -2 13.76 -2 9 C-1.34 9 -0.68 9 0 9 C0 6.03 0 3.06 0 0 Z " fill="#CAE5D0" transform="translate(180,104)"/>
<path d="M0 0 C3.3 0 6.6 0 10 0 C10 0.99 10 1.98 10 3 C6.7 3.66 3.4 4.32 0 5 C0 3.35 0 1.7 0 0 Z " fill="#F4F8F5" transform="translate(84,28)"/>
<path d="M0 0 C0 0.99 0 1.98 0 3 C-8.25 2.67 -16.5 2.34 -25 2 C-25 1.67 -25 1.34 -25 1 C-21.39588419 0.83222143 -17.7916996 0.66596812 -14.1875 0.5 C-13.16333984 0.45230469 -12.13917969 0.40460938 -11.08398438 0.35546875 C-10.10107422 0.31035156 -9.11816406 0.26523438 -8.10546875 0.21875 C-7.19949951 0.17685547 -6.29353027 0.13496094 -5.36010742 0.09179688 C-3.57449311 0.02234503 -1.78696447 0 0 0 Z " fill="#C1E0C7" transform="translate(131,194)"/>
<path d="M0 0 C2.475 0.495 2.475 0.495 5 1 C5 3.97 5 6.94 5 10 C4.01 10.33 3.02 10.66 2 11 C1.34 7.37 0.68 3.74 0 0 Z " fill="#DEE5DF" transform="translate(192,84)"/>
<path d="M0 0 C0.33 0 0.66 0 1 0 C1 2.97 1 5.94 1 9 C3.97 9 6.94 9 10 9 C10 9.33 10 9.66 10 10 C7.03 10 4.06 10 1 10 C1 12.31 1 14.62 1 17 C0.67 17 0.34 17 0 17 C0 14.69 0 12.38 0 10 C-2.97 10 -5.94 10 -9 10 C-9 9.67 -9 9.34 -9 9 C-6.03 9 -3.06 9 0 9 C0 6.03 0 3.06 0 0 Z " fill="#EFEFEF" transform="translate(215,28)"/>
<path d="M0 0 C5.28 0 10.56 0 16 0 C16 0.33 16 0.66 16 1 C13.36 1 10.72 1 8 1 C8 1.66 8 2.32 8 3 C5.03 3 2.06 3 -1 3 C-0.67 2.01 -0.34 1.02 0 0 Z " fill="#C3E1C9" transform="translate(104,44)"/>
<path d="M0 0 C1.32 0 2.64 0 4 0 C3.67 2.64 3.34 5.28 3 8 C2.01 8.33 1.02 8.66 0 9 C0 6.03 0 3.06 0 0 Z " fill="#F7F9F7" transform="translate(28,178)"/>
<path d="M0 0 C0 1.32 0 2.64 0 4 C-2.97 4 -5.94 4 -9 4 C-8.67 3.01 -8.34 2.02 -8 1 C-5.17884816 -0.07009208 -3.09455459 0 0 0 Z " fill="#F1F7F2" transform="translate(47,193)"/>
<path d="M0 0 C1.65 0 3.3 0 5 0 C5.33 1.65 5.66 3.3 6 5 C3.69 5.33 1.38 5.66 -1 6 C-0.67 4.02 -0.34 2.04 0 0 Z " fill="#D8E4DA" transform="translate(51,169)"/>
<path d="M0 0 C-0.78281305 1.33855056 -1.57651877 2.67073644 -2.375 4 C-2.81585938 4.7425 -3.25671875 5.485 -3.7109375 6.25 C-4.34902344 7.11625 -4.34902344 7.11625 -5 8 C-5.66 8 -6.32 8 -7 8 C-6.67 5.36 -6.34 2.72 -6 0 C-3 -1 -3 -1 0 0 Z " fill="#D8E5DB" transform="translate(44,66)"/>
<path d="M0 0 C4.10801767 1.18676066 5.89448334 1.89448334 9 5 C6.03 5 3.06 5 0 5 C0 3.35 0 1.7 0 0 Z " fill="#F2F8F4" transform="translate(141,51)"/>
<path d="M0 0 C0 3 0 3 -1.49609375 4.71875 C-2.13675781 5.3065625 -2.77742187 5.894375 -3.4375 6.5 C-5.92139791 8.78819687 -6.90880131 9.72640392 -8 13 C-9.32 12.67 -10.64 12.34 -12 12 C-8.04 8.04 -4.08 4.08 0 0 Z " fill="#CEE7D3" transform="translate(177,165)"/>
<path d="M0 0 C0.66 0 1.32 0 2 0 C2 2.97 2 5.94 2 9 C0.68 9 -0.64 9 -2 9 C-1.51421457 5.87709365 -1.0013988 3.00419641 0 0 Z " fill="#EEF7F0" transform="translate(54,160)"/>
<path d="M0 0 C1.24546405 2.49092811 0.7767578 3.41080733 0 6 C-2.64 6.33 -5.28 6.66 -8 7 C-6.5361389 2.60841671 -4.02168662 2.12052567 0 0 Z " fill="#D7E5DA" transform="translate(159,181)"/>
<path d="M0 0 C0 1.65 0 3.3 0 5 C-2.97 5 -5.94 5 -9 5 C-2.87096774 0 -2.87096774 0 0 0 Z " fill="#D6E3D9" transform="translate(84,51)"/>
<path d="M0 0 C0 3 0 3 -1.96875 5.26171875 C-2.8040625 6.06222656 -3.639375 6.86273438 -4.5 7.6875 C-5.3353125 8.49574219 -6.170625 9.30398437 -7.03125 10.13671875 C-7.6809375 10.75160156 -8.330625 11.36648437 -9 12 C-9.66 11.67 -10.32 11.34 -11 11 C-9.92173635 9.72486237 -8.83714481 8.45507431 -7.75 7.1875 C-7.14671875 6.47980469 -6.5434375 5.77210937 -5.921875 5.04296875 C-4.07629602 3.08110329 -2.20054668 1.54330375 0 0 Z " fill="#11BB3D" transform="translate(59,48)"/>
<path d="M0 0 C0.99 0 1.98 0 3 0 C2.67 3.96 2.34 7.92 2 12 C-0.13586678 8.79619983 -0.23132175 7.98060033 -0.125 4.3125 C-0.10695313 3.50425781 -0.08890625 2.69601563 -0.0703125 1.86328125 C-0.04710938 1.24839844 -0.02390625 0.63351563 0 0 Z " fill="#DAE7DC" transform="translate(28,94)"/>
<path d="M0 0 C1.65 0 3.3 0 5 0 C3.68 2.64 2.36 5.28 1 8 C0.67 8 0.34 8 0 8 C0 5.36 0 2.72 0 0 Z " fill="#DCE5DF" transform="translate(169,141)"/>
<path d="M0 0 C0.33 0 0.66 0 1 0 C1 2.64 1 5.28 1 8 C-0.65 8 -2.3 8 -4 8 C-2.68 5.36 -1.36 2.72 0 0 Z " fill="#D3E2D6" transform="translate(55,76)"/>
<path d="M0 0 C2.97 0.33 5.94 0.66 9 1 C9 1.66 9 2.32 9 3 C6.03 3 3.06 3 0 3 C0 2.01 0 1.02 0 0 Z " fill="#F8FAF9" transform="translate(94,194)"/>
<path d="M0 0 C2.64 0 5.28 0 8 0 C5.31158141 2.25245881 3.35358125 3.88213958 0 5 C0 3.35 0 1.7 0 0 Z " fill="#D5E3D8" transform="translate(141,169)"/>
<path d="M0 0 C0.33 0 0.66 0 1 0 C1 2.64 1 5.28 1 8 C-0.65 8 -2.3 8 -4 8 C-2.68 5.36 -1.36 2.72 0 0 Z " fill="#D6E4D9" transform="translate(186,151)"/>
<path d="M0 0 C1.65 0 3.3 0 5 0 C3.63016497 3.16115776 3.0109362 3.9927092 0 6 C0 4.02 0 2.04 0 0 Z " fill="#E7F4E9" transform="translate(75,75)"/>
<path d="M0 0 C1.65 0 3.3 0 5 0 C5.33 0.66 5.66 1.32 6 2 C4.02 2.99 2.04 3.98 0 5 C0 3.35 0 1.7 0 0 Z " fill="#D4E3D7" transform="translate(66,38)"/>
<path d="M0 0 C4.455 0.99 4.455 0.99 9 2 C9 2.33 9 2.66 9 3 C6.03 3 3.06 3 0 3 C0 2.01 0 1.02 0 0 Z " fill="#F3F9F5" transform="translate(122,147)"/>
<path d="M0 0 C2.31 0 4.62 0 7 0 C6.67 0.99 6.34 1.98 6 3 C3.5625 2.625 3.5625 2.625 1 2 C0.67 1.34 0.34 0.68 0 0 Z " fill="#F3F8F4" transform="translate(143,122)"/>
<path d="M0 0 C4 4.75 4 4.75 4 7 C2.68 7 1.36 7 0 7 C0 4.69 0 2.38 0 0 Z " fill="#D9E5DB" transform="translate(75,105)"/>
<path d="M0 0 C2.31 0 4.62 0 7 0 C6.01 0.495 6.01 0.495 5 1 C4.67 1.99 4.34 2.98 4 4 C2.68 3.34 1.36 2.68 0 2 C0 1.34 0 0.68 0 0 Z " fill="#E6F1E8" transform="translate(152,37)"/>
</svg>
