<svg width="72" height="72" viewBox="0 0 72 72" fill="none" xmlns="http://www.w3.org/2000/svg">
<circle cx="36" cy="36" r="36" fill="#25D366"></circle>
<path d="M45 39C44.5 37.5 40.9 35.7 39.7 35.3C38.5 34.9 38.1 35 37.5 35.8C36.9 36.6 35.8 38 35.3 38.6C34.9 38.9 34.5 39 34 38.8C32 38 28.6 35.7 27 33C26.6 32.3 27 31.8 27.4 31.5C27.7 31.2 28.2 30.5 28.5 30C28.8 29.4 28.7 29 28.4 28.3C28 27.6 26.9 25.3 26.3 24C25.7 22.7 25.1 22.9 24.5 22.9C24 22.9 23.3 22.9 22.6 23.5C21.9 24.1 20 26 20 29.2C20 32.4 22.5 35.9 23.1 36.7C23.7 37.5 27.4 42.4 33 44.7C38.6 47 39.4 46.3 40.8 46.1C42.2 45.9 45.4 44.1 46 42.5C46.6 40.9 46.6 40.5 46 39C45.8 39 45 39 45 39Z" fill="white"></path>
</svg>
