<?xml version="1.0" encoding="UTF-8"?>
<svg version="1.1" xmlns="http://www.w3.org/2000/svg" width="250" height="250">
<path d="M0 0 C1.08279739 -0.00101212 1.08279739 -0.00101212 2.18746948 -0.00204468 C12.62386462 0.0134941 22.50931645 0.34305965 32.625 3.25 C33.85089844 3.5903125 35.07679688 3.930625 36.33984375 4.28125 C68.36930162 14.06527428 95.88709752 36.21745102 111.9375 65.625 C121.6478033 84.15863123 125.85754995 103.88023199 125.875 124.6875 C125.87567474 125.40686737 125.87634949 126.12623474 125.87704468 126.86740112 C125.86149018 137.28528005 125.52678729 147.15224828 122.625 157.25 C122.2846875 158.47589844 121.944375 159.70179688 121.59375 160.96484375 C111.81157625 192.98824363 89.65938156 220.52208122 60.25 236.5625 C52.35063957 240.67640593 44.15180544 243.71690837 35.625 246.25 C34.93583496 246.46172852 34.24666992 246.67345703 33.53662109 246.89160156 C13.80009382 252.71791675 -11.60193393 252.93217889 -31.375 247.25 C-32.60089844 246.9096875 -33.82679687 246.569375 -35.08984375 246.21875 C-67.11930162 236.43472572 -94.63709752 214.28254898 -110.6875 184.875 C-120.3978033 166.34136877 -124.60754995 146.61976801 -124.625 125.8125 C-124.62567474 125.09313263 -124.62634949 124.37376526 -124.62704468 123.63259888 C-124.61149018 113.21471995 -124.27678729 103.34775172 -121.375 93.25 C-121.0346875 92.02410156 -120.694375 90.79820313 -120.34375 89.53515625 C-110.56008402 57.50687132 -88.40790429 29.98596937 -59 13.9375 C-40.54892003 4.28190456 -20.71014232 0.01726455 0 0 Z " fill="#27D045" transform="translate(124.375,-0.24999999999999997)"/>
<path d="M0 0 C14.35884035 11.70916483 24.85025521 27.12799104 27.34228516 45.75146484 C29.06379635 64.27922911 23.07101393 82.46754873 11.34228516 96.75146484 C1.5252434 108.24186599 -11.71835183 116.13328185 -26.65771484 118.75146484 C-39.38426695 119.59951174 -52.87262758 120.30920486 -64.65771484 114.75146484 C-64.98771484 114.42146484 -65.31771484 114.09146484 -65.65771484 113.75146484 C-71.88453596 113.23395424 -77.11363932 114.80846307 -83.03271484 116.62646484 C-89.54209779 118.58678334 -96.00191482 120.35523796 -102.65771484 121.75146484 C-101.99243188 114.48388008 -100.00772856 107.99761653 -97.74169922 101.08544922 C-95.4941456 93.96184706 -94.41596646 88.34825594 -97.97021484 81.43896484 C-102.63796138 72.28569611 -104.21895633 63.79050763 -104.15771484 53.56396484 C-104.15271973 52.46624756 -104.14772461 51.36853027 -104.14257812 50.23754883 C-103.75550238 32.1183999 -96.21300356 18.5669668 -83.65771484 5.75146484 C-83.06603516 5.12369141 -82.47435547 4.49591797 -81.86474609 3.84912109 C-60.46465958 -16.98407571 -23.49333494 -17.694391 0 0 Z " fill="#28D046" transform="translate(164.65771484375,70.24853515625)"/>
<path d="M0 0 C14.35884035 11.70916483 24.85025521 27.12799104 27.34228516 45.75146484 C29.06379635 64.27922911 23.07101393 82.46754873 11.34228516 96.75146484 C1.5252434 108.24186599 -11.71835183 116.13328185 -26.65771484 118.75146484 C-39.38426695 119.59951174 -52.87262758 120.30920486 -64.65771484 114.75146484 C-64.98771484 114.42146484 -65.31771484 114.09146484 -65.65771484 113.75146484 C-71.88453596 113.23395424 -77.11363932 114.80846307 -83.03271484 116.62646484 C-89.54209779 118.58678334 -96.00191482 120.35523796 -102.65771484 121.75146484 C-101.99243188 114.48388008 -100.00772856 107.99761653 -97.74169922 101.08544922 C-95.4941456 93.96184706 -94.41596646 88.34825594 -97.97021484 81.43896484 C-102.63796138 72.28569611 -104.21895633 63.79050763 -104.15771484 53.56396484 C-104.15271973 52.46624756 -104.14772461 51.36853027 -104.14257812 50.23754883 C-103.75550238 32.1183999 -96.21300356 18.5669668 -83.65771484 5.75146484 C-83.06603516 5.12369141 -82.47435547 4.49591797 -81.86474609 3.84912109 C-60.46465958 -16.98407571 -23.49333494 -17.694391 0 0 Z M-78.65771484 14.75146484 C-90.27885508 28.755276 -95.00166675 43.13943587 -93.9609375 61.16552734 C-93.08467302 68.63846888 -89.99714403 76.10281381 -85.95458984 82.40771484 C-83.68798154 86.50399491 -84.73000097 90.31430705 -85.65771484 94.75146484 C-86.6180917 97.96950181 -87.67452286 101.12528344 -88.81787109 104.28271484 C-89.76506946 106.63242195 -89.76506946 106.63242195 -89.65771484 108.75146484 C-84.53164758 107.74305817 -79.88733584 106.50447033 -75.03271484 104.56396484 C-67.38945269 101.73351964 -62.21303824 103.71989325 -54.98974609 106.81396484 C-43.55178618 111.41213968 -28.83507733 109.87591934 -17.71240234 105.24365234 C-1.17174338 97.1636885 8.8576746 86.14283268 15.08837891 68.65771484 C19.00168967 54.62377279 16.66302052 38.97644259 9.90869141 26.29443359 C1.56656429 12.75147909 -10.41684126 3.70232861 -25.78271484 -0.56103516 C-44.4248529 -4.04805379 -65.50095966 0.25673456 -78.65771484 14.75146484 Z " fill="#F9FDFA" transform="translate(164.65771484375,70.24853515625)"/>
<path d="M0 0 C1.20801248 2.19912496 2.39081947 4.40661819 3.5625 6.625 C4.07586914 7.55119141 4.07586914 7.55119141 4.59960938 8.49609375 C6.8158562 12.74949674 7.41003421 15.39208916 6 20 C5.46375 20.680625 4.9275 21.36125 4.375 22.0625 C2.79388109 23.91011545 2.79388109 23.91011545 2.9375 26.25 C6.4432368 35.32367172 13.88146152 40.6131502 22.15234375 45.19140625 C24.03626305 46.1543113 24.03626305 46.1543113 26.4375 46.0625 C30.28075941 44.46895342 31.87414244 41.46469552 34 38 C38.23322844 38.62045463 41.52290295 40.10523559 45.3125 42.0625 C46.91544922 42.88427734 46.91544922 42.88427734 48.55078125 43.72265625 C49.35902344 44.14417969 50.16726562 44.56570312 51 45 C51.71169687 51.76112026 51.71169687 51.76112026 49.83984375 55.01953125 C46.32670291 59.28741335 43.45347941 61.54038721 37.88671875 62.28125 C25.02472019 63.10179217 12.46247056 54.99976074 3 46.9375 C-4.90869335 39.55355407 -13.87226074 29.96529354 -15.43359375 18.9375 C-15.44234372 12.35752249 -14.96290612 8.32161678 -11 3 C-10.5875 2.360625 -10.175 1.72125 -9.75 1.0625 C-6.71001063 -0.78320783 -3.48295469 -0.17129285 0 0 Z " fill="#FAFEFB" transform="translate(107,94)"/>
</svg>
